<svg width="36" height="17" viewBox="0 0 36 17" fill="none" xmlns="http://www.w3.org/2000/svg">
<rect x="0.5" y="0.5" width="35" height="16" rx="8" stroke="white"/>
<path d="M6.88715 12V5H9.25715C9.73715 5 10.1571 5.07333 10.5171 5.22C10.8771 5.36667 11.1571 5.59 11.3571 5.89C11.5571 6.18333 11.6571 6.55 11.6571 6.99C11.6571 7.26333 11.5871 7.51667 11.4471 7.75C11.3138 7.97667 11.1238 8.17333 10.8771 8.34C11.2038 8.50667 11.4538 8.73 11.6271 9.01C11.8071 9.28333 11.8971 9.61333 11.8971 10C11.8971 10.4267 11.8005 10.79 11.6071 11.09C11.4138 11.39 11.1438 11.6167 10.7971 11.77C10.4505 11.9233 10.0438 12 9.57715 12H6.88715ZM8.22715 10.79H9.44715C9.77382 10.79 10.0305 10.71 10.2171 10.55C10.4038 10.3833 10.4971 10.1633 10.4971 9.89C10.4971 9.60333 10.3938 9.38 10.1871 9.22C9.98048 9.05333 9.69715 8.97 9.33715 8.97H8.22715V10.79ZM8.22715 7.85H9.28715C9.58715 7.85 9.82382 7.77333 9.99715 7.62C10.1705 7.46667 10.2571 7.25 10.2571 6.97C10.2571 6.69 10.1605 6.47333 9.96715 6.32C9.77382 6.16667 9.51048 6.09 9.17715 6.09H8.22715V7.85ZM12.8102 12V5H17.2402V6.25H14.1802V7.84H16.8202V9.06H14.1802V10.75H17.2802V12H12.8102ZM19.9789 12V6.25H17.8789V5H23.4389V6.25H21.3489V12H19.9789ZM28.3442 12L25.6642 5H27.0342L29.7942 12H28.3442ZM22.8142 12L25.5742 5H26.9442L24.2642 12H22.8142ZM24.1142 10.46V9.25H28.5042V10.46H24.1142Z" fill="white"/>
</svg>
