<svg width="20" height="24" viewBox="0 0 20 24" fill="none" xmlns="http://www.w3.org/2000/svg">
<g clip-path="url(#clip0_4034_16395)">
<path d="M4.28571 0.5C1.91964 0.5 0 2.43164 0 4.8125V19.1875C0 21.5684 1.91964 23.5 4.28571 23.5H17.1429H18.5714C19.3616 23.5 20 22.8576 20 22.0625C20 21.2674 19.3616 20.625 18.5714 20.625V17.75C19.3616 17.75 20 17.1076 20 16.3125V1.9375C20 1.14238 19.3616 0.5 18.5714 0.5H17.1429H4.28571ZM4.28571 17.75H15.7143V20.625H4.28571C3.49554 20.625 2.85714 19.9826 2.85714 19.1875C2.85714 18.3924 3.49554 17.75 4.28571 17.75ZM5.71429 6.96875C5.71429 6.57344 6.03571 6.25 6.42857 6.25H15C15.3929 6.25 15.7143 6.57344 15.7143 6.96875C15.7143 7.36406 15.3929 7.6875 15 7.6875H6.42857C6.03571 7.6875 5.71429 7.36406 5.71429 6.96875ZM6.42857 9.125H15C15.3929 9.125 15.7143 9.44844 15.7143 9.84375C15.7143 10.2391 15.3929 10.5625 15 10.5625H6.42857C6.03571 10.5625 5.71429 10.2391 5.71429 9.84375C5.71429 9.44844 6.03571 9.125 6.42857 9.125Z" fill="white"/>
</g>
<defs>
<clipPath id="clip0_4034_16395">
<rect width="20" height="23" fill="white" transform="translate(0 0.5)"/>
</clipPath>
</defs>
</svg>
