<svg width="65" height="33" viewBox="0 0 65 33" fill="none" xmlns="http://www.w3.org/2000/svg">
<path d="M7.63032 15.5L7.51832 14.012V4.3H9.63032V15.5H7.63032ZM5.11832 15.692C4.38232 15.692 3.74232 15.5213 3.19832 15.18C2.66499 14.8387 2.24899 14.3533 1.95032 13.724C1.65166 13.0947 1.50232 12.3533 1.50232 11.5C1.50232 10.636 1.65166 9.89467 1.95032 9.276C2.24899 8.64667 2.66499 8.16133 3.19832 7.82C3.74232 7.47867 4.38232 7.308 5.11832 7.308C5.79032 7.308 6.35566 7.47867 6.81432 7.82C7.28366 8.16133 7.64099 8.64667 7.88632 9.276C8.13166 9.89467 8.25432 10.636 8.25432 11.5C8.25432 12.3533 8.13166 13.0947 7.88632 13.724C7.64099 14.3533 7.28366 14.8387 6.81432 15.18C6.35566 15.5213 5.79032 15.692 5.11832 15.692ZM5.66232 13.756C6.02499 13.756 6.34499 13.66 6.62232 13.468C6.91032 13.276 7.13432 13.0093 7.29432 12.668C7.45432 12.3267 7.53432 11.9373 7.53432 11.5C7.53432 11.0627 7.45432 10.6733 7.29432 10.332C7.13432 9.99067 6.91032 9.72933 6.62232 9.548C6.34499 9.356 6.01966 9.26 5.64632 9.26C5.26232 9.26 4.92632 9.356 4.63832 9.548C4.35032 9.72933 4.12099 9.99067 3.95032 10.332C3.77966 10.6733 3.69432 11.0627 3.69432 11.5C3.69432 11.9373 3.77966 12.3267 3.95032 12.668C4.12099 13.0093 4.35032 13.276 4.63832 13.468C4.93699 13.66 5.27832 13.756 5.66232 13.756ZM15.9619 15.5L15.8979 13.884V11.452C15.8979 10.972 15.8446 10.5613 15.7379 10.22C15.6419 9.87867 15.4819 9.61733 15.2579 9.436C15.0446 9.244 14.7513 9.148 14.3779 9.148C14.0366 9.148 13.7273 9.22267 13.4499 9.372C13.1726 9.52133 12.9379 9.75067 12.7459 10.06L10.8899 9.42C11.0393 9.07867 11.2579 8.748 11.5459 8.428C11.8339 8.09733 12.2073 7.83067 12.6659 7.628C13.1353 7.41467 13.7059 7.308 14.3779 7.308C15.1886 7.308 15.8606 7.46267 16.3939 7.772C16.9379 8.08133 17.3379 8.51867 17.5939 9.084C17.8606 9.63867 17.9886 10.3 17.9779 11.068L17.9299 15.5H15.9619ZM13.7219 15.692C12.7619 15.692 12.0153 15.4787 11.4819 15.052C10.9593 14.6253 10.6979 14.0227 10.6979 13.244C10.6979 12.3907 10.9806 11.7507 11.5459 11.324C12.1219 10.8867 12.9273 10.668 13.9619 10.668H15.9939V12.236H14.6979C14.0046 12.236 13.5246 12.3213 13.2579 12.492C12.9913 12.652 12.8579 12.8813 12.8579 13.18C12.8579 13.4147 12.9646 13.6013 13.1779 13.74C13.3913 13.868 13.6899 13.932 14.0739 13.932C14.4259 13.932 14.7353 13.852 15.0019 13.692C15.2793 13.5213 15.4979 13.308 15.6579 13.052C15.8179 12.7853 15.8979 12.5133 15.8979 12.236H16.4099C16.4099 13.324 16.2019 14.172 15.7859 14.78C15.3806 15.388 14.6926 15.692 13.7219 15.692ZM21.7784 15.5L24.8184 7.5H26.9944L23.7144 15.5H21.7784ZM21.6024 15.5L18.3224 7.5H20.4984L23.5384 15.5H21.6024ZM27.8211 15.5V7.5H29.9331V15.5H27.8211ZM28.8771 6.204C28.5571 6.204 28.2744 6.08667 28.0291 5.852C27.7837 5.60667 27.6611 5.31867 27.6611 4.988C27.6611 4.65733 27.7837 4.37467 28.0291 4.14C28.2744 3.89467 28.5571 3.772 28.8771 3.772C29.2077 3.772 29.4904 3.89467 29.7251 4.14C29.9704 4.37467 30.0931 4.65733 30.0931 4.988C30.0931 5.31867 29.9704 5.60667 29.7251 5.852C29.4904 6.08667 29.2077 6.204 28.8771 6.204ZM34.5526 15.692C34.0406 15.692 33.5606 15.6173 33.1126 15.468C32.6646 15.308 32.2699 15.084 31.9286 14.796C31.5872 14.4973 31.3206 14.1347 31.1286 13.708L32.9366 12.876C33.0966 13.132 33.3152 13.356 33.5926 13.548C33.8699 13.7293 34.1899 13.82 34.5526 13.82C34.9046 13.82 35.1766 13.772 35.3686 13.676C35.5606 13.5693 35.6566 13.42 35.6566 13.228C35.6566 13.036 35.5766 12.8973 35.4166 12.812C35.2672 12.716 35.0592 12.636 34.7926 12.572L34.0566 12.38C33.2886 12.1773 32.6806 11.8573 32.2326 11.42C31.7952 10.972 31.5766 10.46 31.5766 9.884C31.5766 9.06267 31.8379 8.428 32.3606 7.98C32.8939 7.532 33.6459 7.308 34.6166 7.308C35.1179 7.308 35.5819 7.38267 36.0086 7.532C36.4459 7.68133 36.8192 7.88933 37.1286 8.156C37.4379 8.42267 37.6512 8.732 37.7686 9.084L36.0246 9.884C35.9499 9.67067 35.7686 9.5 35.4806 9.372C35.1926 9.23333 34.9046 9.164 34.6166 9.164C34.3286 9.164 34.1046 9.228 33.9446 9.356C33.7952 9.47333 33.7206 9.63867 33.7206 9.852C33.7206 9.99067 33.7952 10.108 33.9446 10.204C34.0939 10.2893 34.3072 10.364 34.5846 10.428L35.6246 10.684C36.1472 10.812 36.5632 11.02 36.8726 11.308C37.1926 11.5853 37.4219 11.9 37.5606 12.252C37.7099 12.5933 37.7846 12.9293 37.7846 13.26C37.7846 13.74 37.6406 14.1667 37.3526 14.54C37.0752 14.9027 36.6912 15.1853 36.2006 15.388C35.7206 15.5907 35.1712 15.692 34.5526 15.692Z" fill="url(#paint0_linear_3356_56812)"/>
<path d="M5.71939 28.692C4.88739 28.692 4.14605 28.516 3.49539 28.164C2.84472 27.8013 2.33805 27.3053 1.97539 26.676C1.61272 26.036 1.43139 25.3107 1.43139 24.5C1.43139 23.6787 1.61272 22.9533 1.97539 22.324C2.33805 21.6947 2.83939 21.204 3.47939 20.852C4.11939 20.4893 4.85539 20.308 5.68739 20.308C6.48739 20.308 7.21805 20.5053 7.87939 20.9C8.54072 21.2947 9.02072 21.8653 9.31939 22.612L7.33539 23.316C7.18605 23.0067 6.95139 22.7613 6.63139 22.58C6.32205 22.388 5.97539 22.292 5.59139 22.292C5.19672 22.292 4.85005 22.388 4.55139 22.58C4.25272 22.7613 4.01805 23.0173 3.84739 23.348C3.67672 23.6787 3.59139 24.0627 3.59139 24.5C3.59139 24.9373 3.67672 25.3213 3.84739 25.652C4.01805 25.972 4.25805 26.228 4.56739 26.42C4.87672 26.612 5.22872 26.708 5.62339 26.708C6.00739 26.708 6.35405 26.6067 6.66339 26.404C6.98339 26.2013 7.21805 25.9347 7.36739 25.604L9.36739 26.308C9.05805 27.0653 8.57272 27.652 7.91139 28.068C7.26072 28.484 6.53005 28.692 5.71939 28.692ZM15.1098 28.5L15.0458 26.884V24.452C15.0458 23.972 14.9924 23.5613 14.8858 23.22C14.7898 22.8787 14.6298 22.6173 14.4058 22.436C14.1924 22.244 13.8991 22.148 13.5258 22.148C13.1844 22.148 12.8751 22.2227 12.5978 22.372C12.3204 22.5213 12.0858 22.7507 11.8938 23.06L10.0378 22.42C10.1871 22.0787 10.4058 21.748 10.6938 21.428C10.9818 21.0973 11.3551 20.8307 11.8138 20.628C12.2831 20.4147 12.8538 20.308 13.5258 20.308C14.3364 20.308 15.0084 20.4627 15.5418 20.772C16.0858 21.0813 16.4858 21.5187 16.7418 22.084C17.0084 22.6387 17.1364 23.3 17.1258 24.068L17.0778 28.5H15.1098ZM12.8698 28.692C11.9098 28.692 11.1631 28.4787 10.6298 28.052C10.1071 27.6253 9.84576 27.0227 9.84576 26.244C9.84576 25.3907 10.1284 24.7507 10.6938 24.324C11.2698 23.8867 12.0751 23.668 13.1098 23.668H15.1418V25.236H13.8458C13.1524 25.236 12.6724 25.3213 12.4058 25.492C12.1391 25.652 12.0058 25.8813 12.0058 26.18C12.0058 26.4147 12.1124 26.6013 12.3258 26.74C12.5391 26.868 12.8378 26.932 13.2218 26.932C13.5738 26.932 13.8831 26.852 14.1498 26.692C14.4271 26.5213 14.6458 26.308 14.8058 26.052C14.9658 25.7853 15.0458 25.5133 15.0458 25.236H15.5578C15.5578 26.324 15.3498 27.172 14.9338 27.78C14.5284 28.388 13.8404 28.692 12.8698 28.692ZM21.785 28.692C20.8997 28.692 20.2277 28.4733 19.769 28.036C19.321 27.5987 19.097 26.9747 19.097 26.164V18.004H21.209V25.7C21.209 26.0413 21.2837 26.3027 21.433 26.484C21.5823 26.6547 21.801 26.74 22.089 26.74C22.1957 26.74 22.313 26.7187 22.441 26.676C22.569 26.6227 22.7023 26.548 22.841 26.452L23.577 28.036C23.321 28.228 23.033 28.3827 22.713 28.5C22.4037 28.628 22.0943 28.692 21.785 28.692ZM17.801 22.292V20.5H23.209V22.292H17.801ZM27.9025 28.692C27.0172 28.692 26.3452 28.4733 25.8865 28.036C25.4385 27.5987 25.2145 26.9747 25.2145 26.164V18.004H27.3265V25.7C27.3265 26.0413 27.4012 26.3027 27.5505 26.484C27.6998 26.6547 27.9185 26.74 28.2065 26.74C28.3132 26.74 28.4305 26.7187 28.5585 26.676C28.6865 26.6227 28.8198 26.548 28.9585 26.452L29.6945 28.036C29.4385 28.228 29.1505 28.3827 28.8305 28.5C28.5212 28.628 28.2118 28.692 27.9025 28.692ZM23.9185 22.292V20.5H29.3265V22.292H23.9185ZM30.724 28.5V17.3H32.836V28.5H30.724ZM37.9575 28.692C37.1682 28.692 36.4695 28.516 35.8615 28.164C35.2535 27.8013 34.7735 27.3053 34.4215 26.676C34.0802 26.0467 33.9095 25.3213 33.9095 24.5C33.9095 23.6787 34.0855 22.9533 34.4375 22.324C34.8002 21.6947 35.2908 21.204 35.9095 20.852C36.5388 20.4893 37.2588 20.308 38.0695 20.308C38.7735 20.308 39.4188 20.4947 40.0055 20.868C40.6028 21.2307 41.0775 21.7693 41.4295 22.484C41.7922 23.188 41.9735 24.0467 41.9735 25.06H35.9095L36.1015 24.868C36.1015 25.2627 36.1975 25.6093 36.3895 25.908C36.5922 26.196 36.8482 26.42 37.1575 26.58C37.4775 26.7293 37.8188 26.804 38.1815 26.804C38.6188 26.804 38.9762 26.7133 39.2535 26.532C39.5308 26.34 39.7442 26.0947 39.8935 25.796L41.7815 26.532C41.5575 26.98 41.2642 27.3693 40.9015 27.7C40.5495 28.02 40.1282 28.2653 39.6375 28.436C39.1468 28.6067 38.5868 28.692 37.9575 28.692ZM36.2135 23.684L36.0215 23.492H39.8775L39.7015 23.684C39.7015 23.3 39.6108 22.996 39.4295 22.772C39.2482 22.5373 39.0242 22.3667 38.7575 22.26C38.5015 22.1533 38.2508 22.1 38.0055 22.1C37.7602 22.1 37.4988 22.1533 37.2215 22.26C36.9442 22.3667 36.7042 22.5373 36.5015 22.772C36.3095 22.996 36.2135 23.3 36.2135 23.684ZM42.8809 28.5V17.3H44.9929V28.5H42.8809ZM50.2584 28.692C49.4477 28.692 48.7224 28.516 48.0824 28.164C47.4531 27.8013 46.9571 27.3053 46.5944 26.676C46.2424 26.0467 46.0664 25.3213 46.0664 24.5C46.0664 23.6787 46.2424 22.9533 46.5944 22.324C46.9464 21.6947 47.4371 21.204 48.0664 20.852C48.6957 20.4893 49.4157 20.308 50.2264 20.308C51.0477 20.308 51.7731 20.4893 52.4024 20.852C53.0317 21.204 53.5224 21.6947 53.8744 22.324C54.2264 22.9533 54.4024 23.6787 54.4024 24.5C54.4024 25.3213 54.2264 26.0467 53.8744 26.676C53.5224 27.3053 53.0317 27.8013 52.4024 28.164C51.7837 28.516 51.0691 28.692 50.2584 28.692ZM50.2584 26.74C50.6531 26.74 50.9997 26.644 51.2984 26.452C51.5971 26.26 51.8264 25.9987 51.9864 25.668C52.1571 25.3267 52.2424 24.9373 52.2424 24.5C52.2424 24.0627 52.1571 23.6787 51.9864 23.348C51.8157 23.0067 51.5757 22.74 51.2664 22.548C50.9677 22.356 50.6211 22.26 50.2264 22.26C49.8424 22.26 49.4957 22.356 49.1864 22.548C48.8877 22.74 48.6531 23.0067 48.4824 23.348C48.3117 23.6787 48.2264 24.0627 48.2264 24.5C48.2264 24.9373 48.3117 25.3267 48.4824 25.668C48.6531 25.9987 48.8931 26.26 49.2024 26.452C49.5117 26.644 49.8637 26.74 50.2584 26.74ZM59.0753 31.908C58.4673 31.908 57.9286 31.8653 57.4593 31.78C56.9899 31.6947 56.5953 31.5827 56.2753 31.444C55.9553 31.3053 55.6939 31.1667 55.4913 31.028L56.3233 29.332C56.4726 29.4173 56.6699 29.5133 56.9153 29.62C57.1606 29.7373 57.4539 29.8333 57.7953 29.908C58.1366 29.9933 58.5313 30.036 58.9793 30.036C59.4059 30.036 59.7793 29.9507 60.0993 29.78C60.4299 29.62 60.6859 29.364 60.8673 29.012C61.0593 28.6707 61.1553 28.2333 61.1553 27.7V20.5H63.2673V27.636C63.2673 28.532 63.0966 29.3 62.7553 29.94C62.4139 30.5907 61.9286 31.0813 61.2993 31.412C60.6806 31.7427 59.9393 31.908 59.0753 31.908ZM58.6593 28.276C57.9233 28.276 57.2833 28.116 56.7393 27.796C56.2059 27.476 55.7899 27.028 55.4913 26.452C55.1926 25.876 55.0433 25.1933 55.0433 24.404C55.0433 23.572 55.1926 22.852 55.4913 22.244C55.7899 21.6253 56.2059 21.1507 56.7393 20.82C57.2833 20.4787 57.9233 20.308 58.6593 20.308C59.2993 20.308 59.8539 20.4787 60.3233 20.82C60.7926 21.1507 61.1553 21.6253 61.4113 22.244C61.6673 22.8627 61.7953 23.5987 61.7953 24.452C61.7953 25.22 61.6673 25.892 61.4113 26.468C61.1553 27.044 60.7926 27.492 60.3233 27.812C59.8539 28.1213 59.2993 28.276 58.6593 28.276ZM59.2673 26.5C59.6299 26.5 59.9446 26.4093 60.2113 26.228C60.4886 26.036 60.7019 25.78 60.8513 25.46C61.0006 25.1293 61.0753 24.756 61.0753 24.34C61.0753 23.9133 60.9953 23.54 60.8353 23.22C60.6859 22.9 60.4726 22.6493 60.1953 22.468C59.9286 22.2867 59.6139 22.196 59.2513 22.196C58.8779 22.196 58.5473 22.2867 58.2593 22.468C57.9713 22.6493 57.7473 22.9 57.5873 23.22C57.4273 23.54 57.3419 23.9133 57.3313 24.34C57.3419 24.756 57.4273 25.1293 57.5873 25.46C57.7473 25.78 57.9713 26.036 58.2593 26.228C58.5579 26.4093 58.8939 26.5 59.2673 26.5Z" fill="url(#paint1_linear_3356_56812)"/>
<defs>
<linearGradient id="paint0_linear_3356_56812" x1="0.562012" y1="10.5" x2="67.5898" y2="10.5" gradientUnits="userSpaceOnUse">
<stop stop-color="white"/>
<stop offset="1" stop-color="#E4B43D"/>
</linearGradient>
<linearGradient id="paint1_linear_3356_56812" x1="0.562012" y1="23.5" x2="72.4309" y2="23.5" gradientUnits="userSpaceOnUse">
<stop stop-color="white"/>
<stop offset="1" stop-color="#E4B43D"/>
</linearGradient>
</defs>
</svg>
