<svg width="25" height="18" viewBox="0 0 25 18" fill="none" xmlns="http://www.w3.org/2000/svg">
<path d="M19.1 13.5H20.15C20.45 13.5 20.75 13.2 20.75 12.9V2.1C20.75 1.8 20.45 1.5 20.15 1.5H19.1C18.8 1.5 18.5 1.8 18.5 2.1V12.9C18.5 13.2 18.8 13.5 19.1 13.5ZM10.1 13.5H11.15C11.45 13.5 11.75 13.2 11.75 12.9V3.6C11.75 3.3 11.45 3 11.15 3H10.1C9.8 3 9.5 3.3 9.5 3.6V12.9C9.5 13.2 9.8 13.5 10.1 13.5ZM14.6 13.5H15.65C15.95 13.5 16.25 13.2 16.25 12.9V6.6C16.25 6.3 15.95 6 15.65 6H14.6C14.3 6 14 6.3 14 6.6V12.9C14 13.2 14.3 13.5 14.6 13.5ZM23.75 15.75H2.75V0.75C2.75 0.335625 2.41438 0 2 0H1.25C0.835625 0 0.5 0.335625 0.5 0.75V16.5C0.5 17.3283 1.17172 18 2 18H23.75C24.1644 18 24.5 17.6644 24.5 17.25V16.5C24.5 16.0856 24.1644 15.75 23.75 15.75ZM5.6 13.5H6.65C6.95 13.5 7.25 13.2 7.25 12.9V9.6C7.25 9.3 6.95 9 6.65 9H5.6C5.3 9 5 9.3 5 9.6V12.9C5 13.2 5.3 13.5 5.6 13.5Z" fill="black"/>
</svg>
