<svg width="20" height="20" viewBox="0 0 20 20" fill="none" xmlns="http://www.w3.org/2000/svg">
<g clip-path="url(#clip0_4034_15136)">
<path d="M1.25 0C1.94141 0 2.5 0.638393 2.5 1.42857V16.4286C2.5 16.8214 2.78125 17.1429 3.125 17.1429H18.75C19.4414 17.1429 20 17.7812 20 18.5714C20 19.3616 19.4414 20 18.75 20H3.125C1.39844 20 0 18.4018 0 16.4286V1.42857C0 0.638393 0.558594 0 1.25 0ZM6.25 8.57143C6.94141 8.57143 7.5 9.20982 7.5 10V12.8571C7.5 13.6473 6.94141 14.2857 6.25 14.2857C5.55859 14.2857 5 13.6473 5 12.8571V10C5 9.20982 5.55859 8.57143 6.25 8.57143ZM11.25 5.71429V12.8571C11.25 13.6473 10.6914 14.2857 10 14.2857C9.30859 14.2857 8.75 13.6473 8.75 12.8571V5.71429C8.75 4.92411 9.30859 4.28571 10 4.28571C10.6914 4.28571 11.25 4.92411 11.25 5.71429ZM13.75 7.14286C14.4414 7.14286 15 7.78125 15 8.57143V12.8571C15 13.6473 14.4414 14.2857 13.75 14.2857C13.0586 14.2857 12.5 13.6473 12.5 12.8571V8.57143C12.5 7.78125 13.0586 7.14286 13.75 7.14286ZM18.75 2.85714V12.8571C18.75 13.6473 18.1914 14.2857 17.5 14.2857C16.8086 14.2857 16.25 13.6473 16.25 12.8571V2.85714C16.25 2.06696 16.8086 1.42857 17.5 1.42857C18.1914 1.42857 18.75 2.06696 18.75 2.85714Z" fill="white"/>
</g>
<defs>
<clipPath id="clip0_4034_15136">
<rect width="20" height="20" fill="white"/>
</clipPath>
</defs>
</svg>
