<svg width="224" height="153" viewBox="0 0 224 153" fill="none" xmlns="http://www.w3.org/2000/svg">
<path d="M3.94158 13.216C3.97271 7.24051 9.20306 2.62593 15.1358 3.33965L61.6944 8.94068C66.7191 9.54515 70.5 13.8082 70.5 18.8691V93.0645C70.5 98.9394 65.4596 103.549 59.608 103.025L12.6558 98.8199C7.47932 98.3564 3.52081 94.0048 3.54788 88.8077L3.94158 13.216Z" fill="#71ACD3" fill-opacity="0.7" stroke="white" stroke-width="6"/>
<path d="M70.5 18.8691C70.5 13.8082 74.281 9.54515 79.3056 8.94068L125.747 3.35378C131.721 2.63508 136.972 7.31706 136.941 13.3343L136.547 88.9156C136.52 94.0676 132.584 98.356 127.453 98.8225L81.4054 103.009C75.5492 103.541 70.5 98.93 70.5 93.0497V18.8691Z" fill="#71ACD3" fill-opacity="0.7" stroke="white" stroke-width="6"/>
<path d="M87.9416 59.216C87.9727 53.2405 93.2031 48.6259 99.1358 49.3397L145.694 54.9407C150.719 55.5451 154.5 59.8082 154.5 64.8691V139.064C154.5 144.939 149.46 149.549 143.608 149.025L96.6558 144.82C91.4793 144.356 87.5208 140.005 87.5479 134.808L87.9416 59.216Z" fill="#E4B43D" fill-opacity="0.6" stroke="white" stroke-width="6"/>
<path d="M154.5 64.8691C154.5 59.8082 158.281 55.5451 163.306 54.9407L209.747 49.3538C215.721 48.6351 220.972 53.3171 220.941 59.3343L220.547 134.916C220.52 140.068 216.584 144.356 211.453 144.822L165.405 149.009C159.549 149.541 154.5 144.93 154.5 139.05V64.8691Z" fill="#E4B43D" fill-opacity="0.6" stroke="white" stroke-width="6"/>
</svg>
