<svg width="20" height="20" viewBox="0 0 20 20" fill="none" xmlns="http://www.w3.org/2000/svg">
<path d="M14.1641 5.83496C17.4847 6.44911 20 9.35904 20 12.8574C19.9998 16.8021 16.802 19.9998 12.8574 20C9.35902 20 6.44908 17.4847 5.83496 14.1641C6.25901 14.2426 6.69581 14.2861 7.14258 14.2861C11.0875 14.2861 14.2861 11.0875 14.2861 7.14258C14.2861 6.69581 14.2426 6.25901 14.1641 5.83496ZM7.14258 0C10.6406 0 13.5495 2.51488 14.1641 5.83496C13.7404 5.7566 13.3038 5.71389 12.8574 5.71387C8.91253 5.71387 5.71387 8.91253 5.71387 12.8574C5.71388 13.3038 5.7566 13.7404 5.83496 14.1641C2.51488 13.5495 0 10.6406 0 7.14258C0.000150748 3.19791 3.19791 0.000150751 7.14258 0Z" fill="white"/>
</svg>
