<svg width="24" height="19" viewBox="0 0 24 19" fill="none" xmlns="http://www.w3.org/2000/svg">
<path d="M18.6 14H19.65C19.95 14 20.25 13.7 20.25 13.4V2.6C20.25 2.3 19.95 2 19.65 2H18.6C18.3 2 18 2.3 18 2.6V13.4C18 13.7 18.3 14 18.6 14ZM9.6 14H10.65C10.95 14 11.25 13.7 11.25 13.4V4.1C11.25 3.8 10.95 3.5 10.65 3.5H9.6C9.3 3.5 9 3.8 9 4.1V13.4C9 13.7 9.3 14 9.6 14ZM14.1 14H15.15C15.45 14 15.75 13.7 15.75 13.4V7.1C15.75 6.8 15.45 6.5 15.15 6.5H14.1C13.8 6.5 13.5 6.8 13.5 7.1V13.4C13.5 13.7 13.8 14 14.1 14ZM23.25 16.25H2.25V1.25C2.25 0.835625 1.91438 0.5 1.5 0.5H0.75C0.335625 0.5 0 0.835625 0 1.25V17C0 17.8283 0.671719 18.5 1.5 18.5H23.25C23.6644 18.5 24 18.1644 24 17.75V17C24 16.5856 23.6644 16.25 23.25 16.25ZM5.1 14H6.15C6.45 14 6.75 13.7 6.75 13.4V10.1C6.75 9.8 6.45 9.5 6.15 9.5H5.1C4.8 9.5 4.5 9.8 4.5 10.1V13.4C4.5 13.7 4.8 14 5.1 14Z" fill="white"/>
</svg>
