<svg width="199" height="157" viewBox="0 0 199 157" fill="none" xmlns="http://www.w3.org/2000/svg">
<path d="M99.1182 46.168C133.752 46.168 161.446 70.4188 161.446 99.8945C161.446 129.391 133.602 154.375 98.9922 154.375C64.3906 154.375 36.7913 129.398 36.791 99.8945C36.791 70.419 64.4846 46.1682 99.1182 46.168Z" fill="white" stroke="#181818" stroke-width="3"/>
<path d="M58.244 44.8841C51.825 46.9035 55.0234 61.3103 55.0234 61.3103L71.1267 53.286C71.1267 53.286 64.0142 43.0688 58.244 44.8841Z" fill="white"/>
<path d="M140.111 44.8841C146.53 46.9035 143.332 61.3103 143.332 61.3103L127.229 53.286C127.229 53.286 134.341 43.0688 140.111 44.8841Z" fill="white"/>
<path d="M142.964 65.5275C142.964 65.5275 160.847 61.5727 172.088 63.4804C181.509 65.0793 190.496 69.5756 195.406 76.8411C200.316 84.1067 192.8 89.6244 186.72 89.4436C180.64 89.2628 171.086 82.7223 159.828 84.6808C150.942 86.2267 149.787 86.9167 149.695 87.1387L149.722 87.224C149.722 87.224 149.671 87.198 149.695 87.1387L142.964 65.5275Z" fill="white"/>
<path d="M26.8541 63.3835C37.8194 60.0547 56.2297 65.0939 56.2297 65.0939L49.6852 86.8669C49.6852 86.8669 45.124 84.8142 39.469 84.4407C33.8141 84.0672 21.0908 89.146 15.6565 89.3687C10.2222 89.5914 1.60062 84.4941 6.46015 77.1724C11.3197 69.8506 17.5828 66.198 26.8541 63.3835Z" fill="white"/>
<path d="M55.0234 61.3103C55.0234 61.3103 51.825 46.9035 58.244 44.8841C64.0142 43.0688 71.1267 53.286 71.1267 53.286" stroke="#181818" stroke-width="3"/>
<path d="M143.332 61.3103C143.332 61.3103 146.53 46.9035 140.111 44.8841C134.341 43.0688 127.229 53.286 127.229 53.286" stroke="#181818" stroke-width="3"/>
<path d="M145.843 65.2115C145.843 65.2115 164.047 59.9615 174.966 63.1643C184.199 65.8724 190.457 69.4529 195.368 76.7185C200.278 83.984 191.786 89.1798 186.392 89.0194C180.998 88.859 168.313 83.9264 162.707 84.3647C157.101 84.803 153.826 87.1478 153.826 87.1478" stroke="#181818" stroke-width="3"/>
<path d="M53.1301 64.7167C53.1301 64.7167 34.7198 59.6775 23.7544 63.0063C14.4832 65.8208 8.22006 69.4734 3.36054 76.7952C-1.49898 84.1169 7.1226 89.2142 12.5569 88.9915C17.9912 88.7688 29.6367 84.5791 36.3694 84.0635C43.1022 83.5478 43.7853 86.2855 43.7853 86.2855" stroke="#181818" stroke-width="3"/>
<path d="M23.0971 74.4028C16.1678 79.4062 9.62887 88.6579 13.2399 88.8467C16.8509 89.0355 27.7726 83.6126 36.8581 83.6126C39.8835 83.6126 33.2805 109.776 39.0052 114.671C39.764 122.889 47.7888 133.877 58.7195 141.524C69.6503 149.171 53.2278 132.031 59.7931 129.818C74.794 124.762 74.1396 123.115 78.3362 117.545C82.5329 111.976 88.9742 101.969 87.7054 94.2275C86.4367 86.4864 81.5435 86.2607 79.7026 83.2768C75.2365 76.0375 65.356 80.4446 64.4777 75.9132C63.5993 71.3819 65.6131 64.1638 59.7931 64.6792C54.2705 65.1682 52.036 73.9745 48.6672 70.4378C43.2722 64.7741 30.0264 69.3994 23.0971 74.4028Z" fill="#7A7A7A"/>
<path d="M122.547 86.2033C117.293 85.8648 109.025 81.6433 108.298 75.9132C108.857 68.7843 111.244 66.4026 118.741 64.6792C126.238 62.9557 129.879 70.4169 134.161 75.9132C138.443 81.4095 127.801 86.5418 122.547 86.2033Z" fill="#7A7A7A"/>
<path d="M153.583 86.2978C156.022 91.1124 157.361 109.162 161.39 103.479C165.419 97.7963 159.354 84.7219 157.974 84.3153C156.595 83.9087 166.563 84.5985 169.881 85.0705C173.199 85.5425 185.61 91.8145 189.4 87.1474C193.191 82.4803 185.645 81.7838 181.105 79.5951C176.564 77.4064 179.412 80.4248 171.052 76.1883C162.693 71.9518 154.835 67.0266 149.874 70.0522C144.913 73.0778 140.505 73.3644 143.628 80.0671C146.751 86.7698 151.143 81.4832 153.583 86.2978Z" fill="#7A7A7A"/>
<path d="M160.511 84.8805C170.075 122.264 140.211 155.117 99.1233 155.117C58.0355 155.117 27.0977 118.771 37.7356 84.1252" stroke="#181818" stroke-width="3"/>
<path d="M55.0273 61.3103C55.0273 61.3103 51.8289 46.9035 58.2479 44.8841C64.0181 43.0688 71.1306 53.286 71.1306 53.286" stroke="#181818" stroke-width="3"/>
<path d="M143.336 61.3103C143.336 61.3103 146.534 46.9035 140.115 44.8841C134.345 43.0688 127.233 53.286 127.233 53.286" stroke="#181818" stroke-width="3"/>
<path d="M145.028 65.1383C145.028 65.1383 164.048 59.965 174.967 63.1678C184.2 65.8759 190.458 69.4564 195.368 76.7219C200.279 83.9875 191.787 89.1833 186.393 89.0229C180.998 88.8624 168.313 83.9299 162.708 84.3682C157.102 84.8065 153.827 87.1513 153.827 87.1513" stroke="#181818" stroke-width="3"/>
<path d="M53.8287 65.1369C53.8287 65.1369 34.7189 59.6921 23.7535 63.0209C14.4823 65.8354 8.21916 69.4881 3.35964 76.8098C-1.49989 84.1316 7.1217 89.2289 12.556 89.0062C17.9903 88.7834 29.6358 84.5938 36.3685 84.0781C43.1013 83.5625 43.7844 86.3002 43.7844 86.3002" stroke="#181818" stroke-width="3"/>
<path d="M89.9501 118.209C84.4847 115.943 78.7266 112.261 78.7266 104.804C78.7266 97.3457 78.8122 93.986 82.6304 93.2862C86.4486 92.5865 87.4457 95.4172 91.0236 97.6288C99.8428 93.1991 102.885 93.8075 112.69 97.2512C115.252 94.0973 120.888 91.9646 123.328 92.9086C125.768 93.8527 124.889 98.0064 125.963 100.933C127.036 103.859 136.113 113.489 117.374 119.53C108.348 122.441 95.4154 120.475 89.9501 118.209Z" fill="white"/>
<path d="M80.1934 93.3527C83.6092 91.1814 88.3433 94.5521 90.8313 97.5085C100.549 93.6955 105.433 93.4448 112.79 97.5085C112.79 97.5085 117.184 92.2915 120.988 92.4107C126.459 92.5822 125.245 98.3815 125.673 100.341C126.101 102.3 133.918 110.696 123.916 116.578C113.914 122.46 103.981 120.589 103.812 120.449" stroke="#181818" stroke-width="3"/>
<ellipse cx="2.90657" cy="1.43627" rx="2.90657" ry="1.43627" transform="matrix(0.797147 0.603785 -0.629196 0.777247 84.7285 98.4695)" fill="#181818"/>
<ellipse cx="2.90657" cy="1.43627" rx="2.90657" ry="1.43627" transform="matrix(-0.797147 0.603785 0.629196 0.777247 118.984 98.4695)" fill="#181818"/>
<path d="M91.2324 109.804L96.1941 112.827L103.247 111.853" stroke="#181818" stroke-width="3" stroke-linecap="round"/>
<path d="M54.8184 93.5642C58.6246 91.7704 60.0885 91.3928 65.0659 92.6202" stroke="white" stroke-width="3" stroke-linecap="round"/>
<path d="M59.502 105.825C59.502 103.748 62.4298 99.4053 63.5034 99.122C64.5769 98.8387 66.1508 99.8339 66.5288 101.293C66.9069 102.753 63.9177 109.765 61.9418 109.412C59.966 109.059 59.502 107.902 59.502 105.825Z" fill="#181818" stroke="#181818" stroke-width="3" stroke-linecap="round"/>
<path d="M144.244 105.766C144.244 103.689 141.316 99.3467 140.243 99.0634C139.169 98.7801 137.595 99.7753 137.217 101.235C136.839 102.694 139.828 109.706 141.804 109.353C143.78 109.001 144.244 107.843 144.244 105.766Z" fill="#181818" stroke="#181818" stroke-width="3" stroke-linecap="round"/>
<path d="M31.3398 131.369L31.4053 131.386M31.3398 131.369L31.4004 131.316M31.3398 131.369L31.4053 131.386M31.3398 131.369L31.4004 131.316M31.4053 131.386L31.4004 131.316M31.4053 131.386L31.4004 131.316M40.334 111.352C41.9198 111.074 43.8506 111.323 45.334 112.695C46.8284 114.078 47.187 115.971 46.9639 117.56C46.7404 119.151 45.9322 120.669 44.7441 121.87C44.1007 122.521 43.3614 123.058 42.5684 123.462C42.5521 124.138 42.449 124.82 42.2598 125.488C41.8019 127.105 40.8679 128.549 39.5889 129.54C39.4629 129.638 39.3304 129.73 39.1953 129.819C39.1716 130.221 39.1097 130.613 39.0146 130.986C38.6185 132.543 37.6501 133.968 36.3398 135.038C35.0285 136.109 33.4289 136.781 31.8096 136.896C30.2041 137.009 28.3074 136.564 26.9785 135.042C25.6399 133.508 25.4934 131.586 25.8887 130.032C26.2848 128.475 27.2523 127.051 28.5625 125.98C29.0953 125.545 29.6741 125.177 30.2803 124.886C30.2442 124.042 30.3476 123.18 30.585 122.342C31.0429 120.725 31.9767 119.281 33.2559 118.29C33.4349 118.151 33.624 118.021 33.8213 117.898C34.06 116.336 34.8591 114.848 36.0273 113.667C37.2162 112.465 38.7352 111.632 40.334 111.352Z" fill="#FFCF70" stroke="#181818" stroke-width="3"/>
<path fill-rule="evenodd" clip-rule="evenodd" d="M61.3043 120.179C70.4998 120.179 77.9543 112.952 77.9543 104.036C77.9543 95.1208 70.4998 87.8933 61.3043 87.8933C52.1087 87.8933 44.6543 95.1208 44.6543 104.036C44.6543 112.952 52.1087 120.179 61.3043 120.179ZM61.3043 123.389C72.3282 123.389 81.2648 114.725 81.2648 104.036C81.2648 93.3481 72.3282 84.6836 61.3043 84.6836C50.2804 84.6836 41.3438 93.3481 41.3438 104.036C41.3438 114.725 50.2804 123.389 61.3043 123.389Z" fill="#FFCF70"/>
<path d="M61.0605 83.1836C72.5789 83.1836 81.917 92.5216 81.917 104.04C81.9167 115.558 72.5787 124.896 61.0605 124.896C49.5425 124.895 40.2053 115.558 40.2051 104.04C40.2051 92.5217 49.5423 83.1838 61.0605 83.1836Z" stroke="#181818" stroke-width="3"/>
<mask id="mask0_4541_19017" style="mask-type:alpha" maskUnits="userSpaceOnUse" x="41" y="84" width="41" height="40">
<path d="M61.2607 86.1836C71.5293 86.1836 79.7684 94.2231 79.7686 104.036C79.7686 113.849 71.5294 121.889 61.2607 121.889C50.9923 121.889 42.7539 113.849 42.7539 104.036C42.754 94.2231 50.9923 86.1837 61.2607 86.1836Z" stroke="#FFCF70" stroke-width="3"/>
</mask>
<g mask="url(#mask0_4541_19017)">
<line y1="-1.5" x2="56.5937" y2="-1.5" transform="matrix(-0.716676 0.696835 -0.734959 -0.678698 92.9551 95.9319)" stroke="white" stroke-width="3"/>
<line y1="-1.5" x2="56.5937" y2="-1.5" transform="matrix(-0.716676 0.696835 -0.734959 -0.678698 90.0137 93.958)" stroke="white" stroke-width="3"/>
</g>
<path d="M74.515 51.5357C70.3445 47.6502 71.4089 42.123 74.027 41.6233C75.4598 41.3499 76.4408 40.7704 78.7117 40.7104C78.7117 40.7104 78.1261 36.6199 80.2732 35.1095C80.5753 34.8969 80.9682 34.6975 81.4443 34.5111C81.4443 34.5111 74.2878 20.9915 75.1982 10.6589C76.1086 0.326332 117.189 -0.896121 123.898 8.48763C130.608 17.8714 119.214 32.0885 119.214 32.0885C121.556 33.3158 120.768 35.7048 119.702 38.2263C121.27 38.3427 122.544 38.7413 123.41 39.5464C128.627 44.3943 128.045 44.093 127.314 47.2875C126.584 50.4821 108.668 58.4044 95.5957 57.7664C86.9984 57.3467 78.6855 55.4212 74.515 51.5357Z" fill="#707070"/>
<mask id="mask1_4541_19017" style="mask-type:alpha" maskUnits="userSpaceOnUse" x="70" y="0" width="60" height="60">
<path d="M74.515 51.5357C70.3445 47.6502 71.4089 42.123 74.027 41.6233C75.4598 41.3499 76.4408 40.7704 78.7117 40.7104C78.7117 40.7104 78.1261 36.6199 80.2732 35.1095C80.5753 34.8969 80.9682 34.6975 81.4443 34.5111C81.4443 34.5111 74.2878 20.9915 75.1982 10.6589C76.1086 0.326332 117.189 -0.896121 123.898 8.48763C130.608 17.8714 119.214 32.0885 119.214 32.0885C121.556 33.3158 120.768 35.7048 119.702 38.2263C121.27 38.3427 122.544 38.7413 123.41 39.5464C128.627 44.3943 128.045 44.093 127.314 47.2875C126.584 50.4821 108.668 58.4044 95.5957 57.7664C86.9984 57.3467 78.6855 55.4212 74.515 51.5357Z" fill="#D9D9D9"/>
<path d="M78.7117 40.7104C80.5904 40.6607 83.3522 40.9666 87.9832 42.0953C96.5131 44.1744 111.826 37.642 119.702 38.2263M78.7117 40.7104C76.4408 40.7704 75.4598 41.3499 74.027 41.6233C71.4089 42.123 70.3445 47.6502 74.515 51.5357C78.6855 55.4212 86.9984 57.3467 95.5957 57.7664C108.668 58.4044 126.584 50.4821 127.314 47.2875C128.045 44.093 128.627 44.3943 123.41 39.5464C122.544 38.7413 121.27 38.3427 119.702 38.2263M78.7117 40.7104C78.7117 40.7104 78.1261 36.6199 80.2732 35.1095C80.5753 34.8969 80.9682 34.6975 81.4443 34.5111M119.214 32.0885C116.872 30.8613 106.331 32.3718 97.7428 32.5606C90.3628 32.7228 84.352 33.373 81.4443 34.5111M119.214 32.0885C121.556 33.3158 120.768 35.7048 119.702 38.2263M119.214 32.0885C119.214 32.0885 130.608 17.8714 123.898 8.48763C117.189 -0.896121 76.1086 0.326332 75.1982 10.6589C74.2878 20.9915 81.4443 34.5111 81.4443 34.5111" stroke="black" stroke-width="3" stroke-linecap="round"/>
</mask>
<g mask="url(#mask1_4541_19017)">
<path d="M119.928 34.0059C120.167 35.9514 125.496 36.6047 111.926 38.1597C98.3546 39.7146 90.9289 39.6296 90.6907 37.684C90.4524 35.7385 96.1099 33.6727 109.681 32.1178C123.252 30.5629 119.69 32.0604 119.928 34.0059Z" fill="white"/>
<path d="M78.7117 40.7104C80.5904 40.6607 83.3522 40.9666 87.9832 42.0953C96.5131 44.1744 111.826 37.642 119.702 38.2263M78.7117 40.7104C76.4408 40.7704 75.4598 41.3499 74.027 41.6233C71.4089 42.123 70.3445 47.6502 74.515 51.5357C78.6855 55.4212 86.9984 57.3467 95.5957 57.7664C108.668 58.4044 126.584 50.4821 127.314 47.2875C128.045 44.093 128.627 44.3943 123.41 39.5464C122.544 38.7413 121.27 38.3427 119.702 38.2263M78.7117 40.7104C78.7117 40.7104 78.1261 36.6199 80.2732 35.1095C80.5753 34.8969 80.9682 34.6975 81.4443 34.5111M119.214 32.0885C116.872 30.8613 106.331 32.3718 97.7428 32.5606C90.3628 32.7228 84.352 33.373 81.4443 34.5111M119.214 32.0885C121.556 33.3158 120.768 35.7048 119.702 38.2263M119.214 32.0885C119.214 32.0885 130.608 17.8714 123.898 8.48763C117.189 -0.896121 76.1086 0.326332 75.1982 10.6589C74.2878 20.9915 81.4443 34.5111 81.4443 34.5111" stroke="#181818" stroke-width="3" stroke-linecap="round"/>
<path d="M120.125 12.414C120.125 14.8645 118.071 16.851 115.538 16.851C113.005 16.851 110.951 14.8645 110.951 12.414C110.951 9.96355 113.005 7.97705 115.538 7.97705C118.071 7.97705 120.125 9.96355 120.125 12.414Z" fill="white"/>
<path d="M111.93 18.7426C111.93 20.0982 110.794 21.1971 109.393 21.1971C107.992 21.1971 106.855 20.0982 106.855 18.7426C106.855 17.387 107.992 16.2881 109.393 16.2881C110.794 16.2881 111.93 17.387 111.93 18.7426Z" fill="white"/>
</g>
</svg>
