<svg width="440" height="819" viewBox="0 0 440 819" fill="none" xmlns="http://www.w3.org/2000/svg">
<g clip-path="url(#clip0_4669_16915)">
<g filter="url(#filter0_d_4669_16915)">
<circle cx="162.382" cy="780.516" r="17.391" transform="rotate(-55.6198 162.382 780.516)" stroke="#5990B3" stroke-width="5.625" shape-rendering="crispEdges"/>
</g>
<g filter="url(#filter1_d_4669_16915)">
<rect width="8.0814" height="48.4884" rx="4.0407" transform="matrix(0.555989 -0.83119 0.831085 0.556145 117.787 754.715)" fill="#5990B3"/>
<rect x="1.56046" y="-0.309425" width="5.8314" height="46.2384" rx="2.9157" transform="matrix(0.555989 -0.83119 0.831085 0.556145 118.737 755.875)" stroke="#5990B3" stroke-width="2.25"/>
</g>
<g filter="url(#filter2_d_4669_16915)">
<circle cx="203.528" cy="815.179" r="17.391" transform="rotate(-50.1217 203.528 815.179)" stroke="#5990B3" stroke-width="5.625" shape-rendering="crispEdges"/>
</g>
<g filter="url(#filter3_d_4669_16915)">
<rect width="8.0814" height="48.4884" rx="4.0407" transform="matrix(0.633069 -0.774095 0.773976 0.633215 161.77 786.177)" fill="#5990B3"/>
<rect x="1.58293" y="-0.158491" width="5.8314" height="46.2384" rx="2.9157" transform="matrix(0.633069 -0.774095 0.773976 0.633215 162.473 787.344)" stroke="#5990B3" stroke-width="2.25"/>
</g>
<g filter="url(#filter4_d_4669_16915)">
<circle cx="240.855" cy="855.597" r="17.391" transform="rotate(-42.6734 240.855 855.597)" stroke="#5990B3" stroke-width="5.625" shape-rendering="crispEdges"/>
</g>
<g filter="url(#filter5_d_4669_16915)">
<rect width="8.0814" height="48.4884" rx="4.0407" transform="matrix(0.728075 -0.685498 0.68536 0.728204 203.211 821.426)" fill="#5990B3"/>
<rect x="1.59011" y="0.0480452" width="5.8314" height="46.2384" rx="2.9157" transform="matrix(0.728075 -0.685498 0.68536 0.728204 203.61 822.529)" stroke="#5990B3" stroke-width="2.25"/>
</g>
<g filter="url(#filter6_d_4669_16915)">
<rect width="8.0814" height="48.4884" rx="4.0407" transform="matrix(0.918779 -0.394771 0.394598 0.918854 239.439 859.972)" fill="#5990B3"/>
<rect x="1.47755" y="0.589593" width="5.8314" height="46.2384" rx="2.9157" transform="matrix(0.918779 -0.394771 0.394598 0.918854 239.327 860.603)" stroke="#5990B3" stroke-width="2.25"/>
</g>
<g filter="url(#filter7_d_4669_16915)">
<circle cx="-38.6801" cy="695.398" r="17.391" transform="rotate(-82.9679 -38.6801 695.398)" stroke="#5990B3" stroke-width="5.625" shape-rendering="crispEdges"/>
</g>
<g filter="url(#filter8_d_4669_16915)">
<rect width="8.0814" height="48.4884" rx="4.0407" transform="matrix(0.112002 -0.993708 0.993687 0.11219 -91.4668 693.215)" fill="#5990B3"/>
<rect x="1.2439" y="-0.991708" width="5.8314" height="46.2384" rx="2.9157" transform="matrix(0.112002 -0.993708 0.993687 0.11219 -89.3768 693.571)" stroke="#5990B3" stroke-width="2.25"/>
</g>
<g filter="url(#filter9_d_4669_16915)">
<circle cx="67.5523" cy="726.143" r="17.391" transform="rotate(-71.4835 67.5523 726.143)" stroke="#5990B3" stroke-width="5.625" shape-rendering="crispEdges"/>
</g>
<g filter="url(#filter10_d_4669_16915)">
<rect width="8.0814" height="48.4884" rx="4.0407" transform="matrix(0.307608 -0.951513 0.951455 0.307788 17.5469 713.881)" fill="#5990B3"/>
<rect x="1.41645" y="-0.724191" width="5.8314" height="46.2384" rx="2.9157" transform="matrix(0.307608 -0.951513 0.951455 0.307788 19.2166 714.728)" stroke="#5990B3" stroke-width="2.25"/>
</g>
<g filter="url(#filter11_d_4669_16915)">
<circle cx="118.384" cy="748.911" r="17.391" transform="rotate(-65.994 118.384 748.911)" stroke="#5990B3" stroke-width="5.625" shape-rendering="crispEdges"/>
</g>
<g filter="url(#filter12_d_4669_16915)">
<rect width="8.0814" height="48.4884" rx="4.0407" transform="matrix(0.397222 -0.917723 0.917648 0.397395 68.5352 731.413)" fill="#5990B3"/>
<rect x="1.47923" y="-0.585369" width="5.8314" height="46.2384" rx="2.9157" transform="matrix(0.397222 -0.917723 0.917648 0.397395 69.964 732.417)" stroke="#5990B3" stroke-width="2.25"/>
</g>
<g filter="url(#filter13_d_4669_16915)">
<circle cx="15.1524" cy="708.791" r="17.391" transform="rotate(-74.5186 15.1524 708.791)" stroke="#5990B3" stroke-width="5.625" shape-rendering="crispEdges"/>
</g>
<g filter="url(#filter14_d_4669_16915)">
<rect width="8.0814" height="48.4884" rx="4.0407" transform="matrix(0.256797 -0.966465 0.966417 0.256979 -36.7402 698.875)" fill="#5990B3"/>
<rect x="1.37612" y="-0.798172" width="5.8314" height="46.2384" rx="2.9157" transform="matrix(0.256797 -0.966465 0.966417 0.256979 -34.9461 699.612)" stroke="#5990B3" stroke-width="2.25"/>
</g>
<g filter="url(#filter15_d_4669_16915)">
<circle cx="237.568" cy="42.7158" r="17.391" transform="rotate(125.472 237.568 42.7158)" stroke="#3E5F75" stroke-width="5.625" shape-rendering="crispEdges"/>
</g>
<g filter="url(#filter16_d_4669_16915)">
<rect width="8.0814" height="48.4884" rx="4.0407" transform="matrix(-0.571727 0.820444 -0.820336 -0.571882 281.664 69.3621)" fill="#3E5F75"/>
<rect x="-1.56607" y="0.279632" width="5.8314" height="46.2384" rx="2.9157" transform="matrix(-0.571727 0.820444 -0.820336 -0.571882 279.432 71.0865)" stroke="#3E5F75" stroke-width="2.25"/>
</g>
<g filter="url(#filter17_d_4669_16915)">
<circle cx="197.09" cy="7.27428" r="17.391" transform="rotate(130.97 197.09 7.27428)" stroke="#3E5F75" stroke-width="5.625" shape-rendering="crispEdges"/>
</g>
<g filter="url(#filter18_d_4669_16915)">
<rect width="8.0814" height="48.4884" rx="4.0407" transform="matrix(-0.647705 0.761891 -0.761769 -0.647849 238.283 37.0676)" fill="#3E5F75"/>
<rect x="-1.58566" y="0.128297" width="5.8314" height="46.2384" rx="2.9157" transform="matrix(-0.647705 0.761891 -0.761769 -0.647849 235.768 38.4871)" stroke="#3E5F75" stroke-width="2.25"/>
</g>
<g filter="url(#filter19_d_4669_16915)">
<circle cx="160.541" cy="-33.8473" r="17.391" transform="rotate(138.419 160.541 -33.8473)" stroke="#3E5F75" stroke-width="5.625" shape-rendering="crispEdges"/>
</g>
<g filter="url(#filter20_d_4669_16915)">
<rect width="8.0814" height="48.4884" rx="4.0407" transform="matrix(-0.741006 0.671498 -0.671359 -0.741132 197.525 1.0354)" fill="#3E5F75"/>
<rect x="-1.58891" y="-0.0783383" width="5.8314" height="46.2384" rx="2.9157" transform="matrix(-0.741006 0.671498 -0.671359 -0.741132 194.706 1.96595)" stroke="#3E5F75" stroke-width="2.25"/>
</g>
<g filter="url(#filter21_d_4669_16915)">
<rect width="8.0814" height="48.4884" rx="4.0407" transform="matrix(-0.926135 0.377191 -0.377016 -0.926207 162.039 -38.1948)" fill="#3E5F75"/>
<rect x="-1.46605" y="-0.617642" width="5.8314" height="46.2384" rx="2.9157" transform="matrix(-0.926135 0.377191 -0.377016 -0.926207 158.982 -38.8316)" stroke="#3E5F75" stroke-width="2.25"/>
</g>
<g filter="url(#filter22_d_4669_16915)">
<circle cx="436.97" cy="131.65" r="17.391" transform="rotate(98.124 436.97 131.65)" stroke="#3E5F75" stroke-width="5.625" shape-rendering="crispEdges"/>
</g>
<g filter="url(#filter23_d_4669_16915)">
<rect width="8.0814" height="48.4884" rx="4.0407" transform="matrix(-0.130918 0.991393 -0.991368 -0.131105 489.703 134.838)" fill="#3E5F75"/>
<rect x="-1.26257" y="0.967824" width="5.8314" height="46.2384" rx="2.9157" transform="matrix(-0.130918 0.991393 -0.991368 -0.131105 489.235 137.185)" stroke="#3E5F75" stroke-width="2.25"/>
</g>
<g filter="url(#filter24_d_4669_16915)">
<circle cx="331.344" cy="98.8863" r="17.391" transform="rotate(109.608 331.344 98.8863)" stroke="#3E5F75" stroke-width="5.625" shape-rendering="crispEdges"/>
</g>
<g filter="url(#filter25_d_4669_16915)">
<rect width="8.0814" height="48.4884" rx="4.0407" transform="matrix(-0.325685 0.945478 -0.945417 -0.325863 381.105 112.099)" fill="#3E5F75"/>
<rect x="-1.42999" y="0.697068" width="5.8314" height="46.2384" rx="2.9157" transform="matrix(-0.325685 0.945478 -0.945417 -0.325863 379.869 114.375)" stroke="#3E5F75" stroke-width="2.25"/>
</g>
<g filter="url(#filter26_d_4669_16915)">
<circle cx="280.955" cy="75.1538" r="17.391" transform="rotate(115.098 280.955 75.1538)" stroke="#3E5F75" stroke-width="5.625" shape-rendering="crispEdges"/>
</g>
<g filter="url(#filter27_d_4669_16915)">
<rect width="8.0814" height="48.4884" rx="4.0407" transform="matrix(-0.414638 0.909986 -0.909908 -0.41481 330.463 93.5984)" fill="#3E5F75"/>
<rect x="-1.49011" y="0.557074" width="5.8314" height="46.2384" rx="2.9157" transform="matrix(-0.414638 0.909986 -0.909908 -0.41481 328.862 95.7425)" stroke="#3E5F75" stroke-width="2.25"/>
</g>
<g filter="url(#filter28_d_4669_16915)">
<circle cx="383.4" cy="117.233" r="17.391" transform="rotate(106.573 383.4 117.233)" stroke="#3E5F75" stroke-width="5.625" shape-rendering="crispEdges"/>
</g>
<g filter="url(#filter29_d_4669_16915)">
<rect width="8.0814" height="48.4884" rx="4.0407" transform="matrix(-0.275167 0.961396 -0.961344 -0.275349 435.094 128.136)" fill="#3E5F75"/>
<rect x="-1.39108" y="0.771803" width="5.8314" height="46.2384" rx="2.9157" transform="matrix(-0.275167 0.961396 -0.961344 -0.275349 434.062 130.458)" stroke="#3E5F75" stroke-width="2.25"/>
</g>
<g filter="url(#filter30_d_4669_16915)">
<circle cx="493.627" cy="139.571" r="17.391" transform="rotate(101.354 493.627 139.571)" stroke="#3E5F75" stroke-width="5.625" shape-rendering="crispEdges"/>
</g>
<g>
<rect width="8.0814" height="48.4884" rx="4.0407" transform="matrix(-0.152269 0.988339 -0.98831 -0.152455 544.91 144.19)" fill="#3E5F75"/>
</g>
<rect x="-1.28315" y="0.94037" width="5.8314" height="46.2384" rx="2.9157" transform="matrix(-0.152269 0.988339 -0.98831 -0.152455 544.361 146.542)" stroke="#3E5F75" stroke-width="2.25"/>
<path opacity="0.5" d="M-59.8604 678.823C-8.99371 733.146 54.629 769.497 122.524 787.038L-9.33398 898.617H-319.382L-59.8604 678.823ZM-152.52 507.394C-144.266 541.707 -131.146 575.207 -113.056 606.841L-456.972 898.616H-612.277L-152.52 507.394ZM598.062 384.641C608.569 505.764 561.091 629.828 459.986 712.747C362.138 792.993 236.331 816.44 122.524 787.038L128.158 782.271C239.08 809.594 361.055 786.123 456.182 708.108C554.515 627.463 601.31 507.273 592.429 389.409L598.062 384.641ZM-43.1055 664.631C8.64429 719.357 74.186 754.534 143.619 769.187L128.158 782.271C59.877 765.451 -4.2146 729.383 -55.2764 674.94L-43.1055 664.631ZM577.772 401.81C582.318 510.922 537.34 620.774 446.396 695.359C358.53 767.419 246.78 790.957 143.619 769.187L577.772 401.81ZM-108.4 602.892C-97.9637 621.271 -85.8271 639.015 -71.9697 655.912C-66.5783 662.486 -61.0088 668.828 -55.2764 674.94L-59.8604 678.823C-65.6099 672.683 -71.1981 666.314 -76.6094 659.716C-90.4387 642.854 -102.58 625.16 -113.056 606.841L-108.4 602.892ZM442.493 135.521C461.932 151.041 480.048 168.822 496.456 188.83C499.51 192.554 502.476 196.322 505.356 200.129L-43.1055 664.631C-48.963 658.437 -54.645 651.993 -60.1348 645.299C-73.9114 628.501 -85.9148 610.83 -96.167 592.512L442.493 135.521ZM-134.019 491.65C-126.681 526.438 -114.104 560.464 -96.167 592.512L-108.4 602.892C-126.435 571.133 -139.393 537.478 -147.385 503.025L-134.019 491.65ZM-23.5771 123.12C89.4498 30.4245 239.784 13.5193 365.833 66.314L360.698 70.6831C237.215 20.1386 90.6367 37.2109 -19.7725 127.759C-133.936 221.387 -178.631 368.314 -147.385 503.025L-152.52 507.394C-185.638 369.713 -140.417 218.942 -23.5771 123.12ZM-10.0742 138.769C93.83 53.5554 231.134 36.1921 348.138 81.3706L-134.019 491.65C-160.858 364.395 -117.584 226.939 -10.0742 138.769ZM516.722 190.505C562.204 250.126 587.15 319.356 592.429 389.409L577.772 401.81C574.822 330.989 551.008 260.48 505.356 200.129L516.722 190.505ZM1047.98 3.92529L598.062 384.641C592.008 314.846 566.7 246.029 521.306 186.623L812.771 -60.2231H1047.98V3.92529ZM458.578 121.875C478.14 137.792 496.406 155.895 513.019 176.152C515.852 179.607 518.613 183.099 521.306 186.623L516.722 190.505C514.013 186.955 511.233 183.437 508.379 179.957C491.78 159.717 473.505 141.663 453.921 125.827L458.578 121.875ZM360.698 70.6831C393.815 84.2384 425.27 102.658 453.921 125.827L442.493 135.521C413.553 112.415 381.68 94.3222 348.138 81.3706L360.698 70.6831ZM458.578 121.875C430.054 98.6672 398.773 80.1107 365.833 66.314L514.539 -60.2231H673.221L458.578 121.875Z" fill="#DCECF8" fill-opacity="0.2"/>
<g filter="url(#filter32_d_4669_16915)">
<path d="M402.471 163.286L400.101 157.844L394 157.971L399.305 155.16L399.315 149.5L402.253 154.413L407.786 154.815L402.905 157.419L402.471 163.286Z" fill="white"/>
</g>
<g filter="url(#filter33_d_4669_16915)">
<path d="M112.971 279.286L110.601 273.844L104.5 273.971L109.805 271.16L109.815 265.5L112.753 270.413L118.286 270.815L113.405 273.419L112.971 279.286Z" fill="white"/>
</g>
<g filter="url(#filter34_d_4669_16915)">
<path d="M408.359 527.3L405.041 519.681L396.5 519.859L403.927 515.925L403.941 508L408.055 514.878L415.8 515.441L408.967 519.087L408.359 527.3Z" fill="white"/>
</g>
<g filter="url(#filter35_d_4669_16915)">
<path d="M38.3594 649.3L35.0412 641.681L26.5004 641.859L33.9274 637.925L33.9413 630L38.0547 636.878L45.8002 637.441L38.9674 641.087L38.3594 649.3Z" fill="white"/>
</g>
</g>
<defs>
<filter id="filter0_d_4669_16915" x="85.9258" y="704.06" width="152.912" height="152.911" filterUnits="userSpaceOnUse" color-interpolation-filters="sRGB">
<feFlood flood-opacity="0" result="BackgroundImageFix"/>
<feColorMatrix in="SourceAlpha" type="matrix" values="0 0 0 0 0 0 0 0 0 0 0 0 0 0 0 0 0 0 127 0" result="hardAlpha"/>
<feOffset/>
<feGaussianBlur stdDeviation="28.125"/>
<feComposite in2="hardAlpha" operator="out"/>
<feColorMatrix type="matrix" values="0 0 0 0 1 0 0 0 0 1 0 0 0 0 1 0 0 0 0.2 0"/>
<feBlend mode="normal" in2="BackgroundImageFix" result="effect1_dropShadow_4669_16915"/>
<feBlend mode="normal" in="SourceGraphic" in2="effect1_dropShadow_4669_16915" result="shape"/>
</filter>
<filter id="filter1_d_4669_16915" x="63.1016" y="693.312" width="154.162" height="143.055" filterUnits="userSpaceOnUse" color-interpolation-filters="sRGB">
<feFlood flood-opacity="0" result="BackgroundImageFix"/>
<feColorMatrix in="SourceAlpha" type="matrix" values="0 0 0 0 0 0 0 0 0 0 0 0 0 0 0 0 0 0 127 0" result="hardAlpha"/>
<feOffset/>
<feGaussianBlur stdDeviation="28.125"/>
<feComposite in2="hardAlpha" operator="out"/>
<feColorMatrix type="matrix" values="0 0 0 0 1 0 0 0 0 1 0 0 0 0 1 0 0 0 0.2 0"/>
<feBlend mode="normal" in2="BackgroundImageFix" result="effect1_dropShadow_4669_16915"/>
<feBlend mode="normal" in="SourceGraphic" in2="effect1_dropShadow_4669_16915" result="shape"/>
</filter>
<filter id="filter2_d_4669_16915" x="127.074" y="738.725" width="152.908" height="152.908" filterUnits="userSpaceOnUse" color-interpolation-filters="sRGB">
<feFlood flood-opacity="0" result="BackgroundImageFix"/>
<feColorMatrix in="SourceAlpha" type="matrix" values="0 0 0 0 0 0 0 0 0 0 0 0 0 0 0 0 0 0 127 0" result="hardAlpha"/>
<feOffset/>
<feGaussianBlur stdDeviation="28.125"/>
<feComposite in2="hardAlpha" operator="out"/>
<feColorMatrix type="matrix" values="0 0 0 0 1 0 0 0 0 1 0 0 0 0 1 0 0 0 0.2 0"/>
<feBlend mode="normal" in2="BackgroundImageFix" result="effect1_dropShadow_4669_16915"/>
<feBlend mode="normal" in="SourceGraphic" in2="effect1_dropShadow_4669_16915" result="shape"/>
</filter>
<filter id="filter3_d_4669_16915" x="107.164" y="725.316" width="151.855" height="146.169" filterUnits="userSpaceOnUse" color-interpolation-filters="sRGB">
<feFlood flood-opacity="0" result="BackgroundImageFix"/>
<feColorMatrix in="SourceAlpha" type="matrix" values="0 0 0 0 0 0 0 0 0 0 0 0 0 0 0 0 0 0 127 0" result="hardAlpha"/>
<feOffset/>
<feGaussianBlur stdDeviation="28.125"/>
<feComposite in2="hardAlpha" operator="out"/>
<feColorMatrix type="matrix" values="0 0 0 0 1 0 0 0 0 1 0 0 0 0 1 0 0 0 0.2 0"/>
<feBlend mode="normal" in2="BackgroundImageFix" result="effect1_dropShadow_4669_16915"/>
<feBlend mode="normal" in="SourceGraphic" in2="effect1_dropShadow_4669_16915" result="shape"/>
</filter>
<filter id="filter4_d_4669_16915" x="164.402" y="779.143" width="152.906" height="152.907" filterUnits="userSpaceOnUse" color-interpolation-filters="sRGB">
<feFlood flood-opacity="0" result="BackgroundImageFix"/>
<feColorMatrix in="SourceAlpha" type="matrix" values="0 0 0 0 0 0 0 0 0 0 0 0 0 0 0 0 0 0 127 0" result="hardAlpha"/>
<feOffset/>
<feGaussianBlur stdDeviation="28.125"/>
<feComposite in2="hardAlpha" operator="out"/>
<feColorMatrix type="matrix" values="0 0 0 0 1 0 0 0 0 1 0 0 0 0 1 0 0 0 0.2 0"/>
<feBlend mode="normal" in2="BackgroundImageFix" result="effect1_dropShadow_4669_16915"/>
<feBlend mode="normal" in="SourceGraphic" in2="effect1_dropShadow_4669_16915" result="shape"/>
</filter>
<filter id="filter5_d_4669_16915" x="148.633" y="761.308" width="148.273" height="150.007" filterUnits="userSpaceOnUse" color-interpolation-filters="sRGB">
<feFlood flood-opacity="0" result="BackgroundImageFix"/>
<feColorMatrix in="SourceAlpha" type="matrix" values="0 0 0 0 0 0 0 0 0 0 0 0 0 0 0 0 0 0 127 0" result="hardAlpha"/>
<feOffset/>
<feGaussianBlur stdDeviation="28.125"/>
<feComposite in2="hardAlpha" operator="out"/>
<feColorMatrix type="matrix" values="0 0 0 0 1 0 0 0 0 1 0 0 0 0 1 0 0 0 0.2 0"/>
<feBlend mode="normal" in2="BackgroundImageFix" result="effect1_dropShadow_4669_16915"/>
<feBlend mode="normal" in="SourceGraphic" in2="effect1_dropShadow_4669_16915" result="shape"/>
</filter>
<filter id="filter6_d_4669_16915" x="184.455" y="801.798" width="136.527" height="157.712" filterUnits="userSpaceOnUse" color-interpolation-filters="sRGB">
<feFlood flood-opacity="0" result="BackgroundImageFix"/>
<feColorMatrix in="SourceAlpha" type="matrix" values="0 0 0 0 0 0 0 0 0 0 0 0 0 0 0 0 0 0 127 0" result="hardAlpha"/>
<feOffset/>
<feGaussianBlur stdDeviation="28.125"/>
<feComposite in2="hardAlpha" operator="out"/>
<feColorMatrix type="matrix" values="0 0 0 0 1 0 0 0 0 1 0 0 0 0 1 0 0 0 0.2 0"/>
<feBlend mode="normal" in2="BackgroundImageFix" result="effect1_dropShadow_4669_16915"/>
<feBlend mode="normal" in="SourceGraphic" in2="effect1_dropShadow_4669_16915" result="shape"/>
</filter>
<filter id="filter7_d_4669_16915" x="-115.135" y="618.943" width="152.91" height="152.911" filterUnits="userSpaceOnUse" color-interpolation-filters="sRGB">
<feFlood flood-opacity="0" result="BackgroundImageFix"/>
<feColorMatrix in="SourceAlpha" type="matrix" values="0 0 0 0 0 0 0 0 0 0 0 0 0 0 0 0 0 0 127 0" result="hardAlpha"/>
<feOffset/>
<feGaussianBlur stdDeviation="28.125"/>
<feComposite in2="hardAlpha" operator="out"/>
<feColorMatrix type="matrix" values="0 0 0 0 1 0 0 0 0 1 0 0 0 0 1 0 0 0 0.2 0"/>
<feBlend mode="normal" in2="BackgroundImageFix" result="effect1_dropShadow_4669_16915"/>
<feBlend mode="normal" in="SourceGraphic" in2="effect1_dropShadow_4669_16915" result="shape"/>
</filter>
<filter id="filter8_d_4669_16915" x="-147.289" y="629.362" width="160.732" height="125.115" filterUnits="userSpaceOnUse" color-interpolation-filters="sRGB">
<feFlood flood-opacity="0" result="BackgroundImageFix"/>
<feColorMatrix in="SourceAlpha" type="matrix" values="0 0 0 0 0 0 0 0 0 0 0 0 0 0 0 0 0 0 127 0" result="hardAlpha"/>
<feOffset/>
<feGaussianBlur stdDeviation="28.125"/>
<feComposite in2="hardAlpha" operator="out"/>
<feColorMatrix type="matrix" values="0 0 0 0 1 0 0 0 0 1 0 0 0 0 1 0 0 0 0.2 0"/>
<feBlend mode="normal" in2="BackgroundImageFix" result="effect1_dropShadow_4669_16915"/>
<feBlend mode="normal" in="SourceGraphic" in2="effect1_dropShadow_4669_16915" result="shape"/>
</filter>
<filter id="filter9_d_4669_16915" x="-8.90625" y="649.684" width="152.918" height="152.918" filterUnits="userSpaceOnUse" color-interpolation-filters="sRGB">
<feFlood flood-opacity="0" result="BackgroundImageFix"/>
<feColorMatrix in="SourceAlpha" type="matrix" values="0 0 0 0 0 0 0 0 0 0 0 0 0 0 0 0 0 0 127 0" result="hardAlpha"/>
<feOffset/>
<feGaussianBlur stdDeviation="28.125"/>
<feComposite in2="hardAlpha" operator="out"/>
<feColorMatrix type="matrix" values="0 0 0 0 1 0 0 0 0 1 0 0 0 0 1 0 0 0 0.2 0"/>
<feBlend mode="normal" in2="BackgroundImageFix" result="effect1_dropShadow_4669_16915"/>
<feBlend mode="normal" in="SourceGraphic" in2="effect1_dropShadow_4669_16915" result="shape"/>
</filter>
<filter id="filter10_d_4669_16915" x="-37.6562" y="650.988" width="159.027" height="133.021" filterUnits="userSpaceOnUse" color-interpolation-filters="sRGB">
<feFlood flood-opacity="0" result="BackgroundImageFix"/>
<feColorMatrix in="SourceAlpha" type="matrix" values="0 0 0 0 0 0 0 0 0 0 0 0 0 0 0 0 0 0 127 0" result="hardAlpha"/>
<feOffset/>
<feGaussianBlur stdDeviation="28.125"/>
<feComposite in2="hardAlpha" operator="out"/>
<feColorMatrix type="matrix" values="0 0 0 0 1 0 0 0 0 1 0 0 0 0 1 0 0 0 0.2 0"/>
<feBlend mode="normal" in2="BackgroundImageFix" result="effect1_dropShadow_4669_16915"/>
<feBlend mode="normal" in="SourceGraphic" in2="effect1_dropShadow_4669_16915" result="shape"/>
</filter>
<filter id="filter11_d_4669_16915" x="41.9258" y="672.452" width="152.918" height="152.917" filterUnits="userSpaceOnUse" color-interpolation-filters="sRGB">
<feFlood flood-opacity="0" result="BackgroundImageFix"/>
<feColorMatrix in="SourceAlpha" type="matrix" values="0 0 0 0 0 0 0 0 0 0 0 0 0 0 0 0 0 0 127 0" result="hardAlpha"/>
<feOffset/>
<feGaussianBlur stdDeviation="28.125"/>
<feComposite in2="hardAlpha" operator="out"/>
<feColorMatrix type="matrix" values="0 0 0 0 1 0 0 0 0 1 0 0 0 0 1 0 0 0 0.2 0"/>
<feBlend mode="normal" in2="BackgroundImageFix" result="effect1_dropShadow_4669_16915"/>
<feBlend mode="normal" in="SourceGraphic" in2="effect1_dropShadow_4669_16915" result="shape"/>
</filter>
<filter id="filter12_d_4669_16915" x="13.5566" y="669.018" width="157.662" height="136.642" filterUnits="userSpaceOnUse" color-interpolation-filters="sRGB">
<feFlood flood-opacity="0" result="BackgroundImageFix"/>
<feColorMatrix in="SourceAlpha" type="matrix" values="0 0 0 0 0 0 0 0 0 0 0 0 0 0 0 0 0 0 127 0" result="hardAlpha"/>
<feOffset/>
<feGaussianBlur stdDeviation="28.125"/>
<feComposite in2="hardAlpha" operator="out"/>
<feColorMatrix type="matrix" values="0 0 0 0 1 0 0 0 0 1 0 0 0 0 1 0 0 0 0.2 0"/>
<feBlend mode="normal" in2="BackgroundImageFix" result="effect1_dropShadow_4669_16915"/>
<feBlend mode="normal" in="SourceGraphic" in2="effect1_dropShadow_4669_16915" result="shape"/>
</filter>
<filter id="filter13_d_4669_16915" x="-61.3066" y="632.332" width="152.918" height="152.917" filterUnits="userSpaceOnUse" color-interpolation-filters="sRGB">
<feFlood flood-opacity="0" result="BackgroundImageFix"/>
<feColorMatrix in="SourceAlpha" type="matrix" values="0 0 0 0 0 0 0 0 0 0 0 0 0 0 0 0 0 0 127 0" result="hardAlpha"/>
<feOffset/>
<feGaussianBlur stdDeviation="28.125"/>
<feComposite in2="hardAlpha" operator="out"/>
<feColorMatrix type="matrix" values="0 0 0 0 1 0 0 0 0 1 0 0 0 0 1 0 0 0 0.2 0"/>
<feBlend mode="normal" in2="BackgroundImageFix" result="effect1_dropShadow_4669_16915"/>
<feBlend mode="normal" in="SourceGraphic" in2="effect1_dropShadow_4669_16915" result="shape"/>
</filter>
<filter id="filter14_d_4669_16915" x="-92.0898" y="635.717" width="159.635" height="130.968" filterUnits="userSpaceOnUse" color-interpolation-filters="sRGB">
<feFlood flood-opacity="0" result="BackgroundImageFix"/>
<feColorMatrix in="SourceAlpha" type="matrix" values="0 0 0 0 0 0 0 0 0 0 0 0 0 0 0 0 0 0 127 0" result="hardAlpha"/>
<feOffset/>
<feGaussianBlur stdDeviation="28.125"/>
<feComposite in2="hardAlpha" operator="out"/>
<feColorMatrix type="matrix" values="0 0 0 0 1 0 0 0 0 1 0 0 0 0 1 0 0 0 0.2 0"/>
<feBlend mode="normal" in2="BackgroundImageFix" result="effect1_dropShadow_4669_16915"/>
<feBlend mode="normal" in="SourceGraphic" in2="effect1_dropShadow_4669_16915" result="shape"/>
</filter>
<filter id="filter15_d_4669_16915" x="161.113" y="-33.7393" width="152.91" height="152.91" filterUnits="userSpaceOnUse" color-interpolation-filters="sRGB">
<feFlood flood-opacity="0" result="BackgroundImageFix"/>
<feColorMatrix in="SourceAlpha" type="matrix" values="0 0 0 0 0 0 0 0 0 0 0 0 0 0 0 0 0 0 127 0" result="hardAlpha"/>
<feOffset/>
<feGaussianBlur stdDeviation="28.125"/>
<feComposite in2="hardAlpha" operator="out"/>
<feColorMatrix type="matrix" values="0 0 0 0 1 0 0 0 0 1 0 0 0 0 1 0 0 0 0.2 0"/>
<feBlend mode="normal" in2="BackgroundImageFix" result="effect1_dropShadow_4669_16915"/>
<feBlend mode="normal" in="SourceGraphic" in2="effect1_dropShadow_4669_16915" result="shape"/>
</filter>
<filter id="filter16_d_4669_16915" x="182.602" y="-13.0331" width="153.729" height="143.691" filterUnits="userSpaceOnUse" color-interpolation-filters="sRGB">
<feFlood flood-opacity="0" result="BackgroundImageFix"/>
<feColorMatrix in="SourceAlpha" type="matrix" values="0 0 0 0 0 0 0 0 0 0 0 0 0 0 0 0 0 0 127 0" result="hardAlpha"/>
<feOffset/>
<feGaussianBlur stdDeviation="28.125"/>
<feComposite in2="hardAlpha" operator="out"/>
<feColorMatrix type="matrix" values="0 0 0 0 1 0 0 0 0 1 0 0 0 0 1 0 0 0 0.2 0"/>
<feBlend mode="normal" in2="BackgroundImageFix" result="effect1_dropShadow_4669_16915"/>
<feBlend mode="normal" in="SourceGraphic" in2="effect1_dropShadow_4669_16915" result="shape"/>
</filter>
<filter id="filter17_d_4669_16915" x="120.637" y="-69.1796" width="152.908" height="152.908" filterUnits="userSpaceOnUse" color-interpolation-filters="sRGB">
<feFlood flood-opacity="0" result="BackgroundImageFix"/>
<feColorMatrix in="SourceAlpha" type="matrix" values="0 0 0 0 0 0 0 0 0 0 0 0 0 0 0 0 0 0 127 0" result="hardAlpha"/>
<feOffset/>
<feGaussianBlur stdDeviation="28.125"/>
<feComposite in2="hardAlpha" operator="out"/>
<feColorMatrix type="matrix" values="0 0 0 0 1 0 0 0 0 1 0 0 0 0 1 0 0 0 0.2 0"/>
<feBlend mode="normal" in2="BackgroundImageFix" result="effect1_dropShadow_4669_16915"/>
<feBlend mode="normal" in="SourceGraphic" in2="effect1_dropShadow_4669_16915" result="shape"/>
</filter>
<filter id="filter18_d_4669_16915" x="141.518" y="-48.9403" width="151.361" height="146.76" filterUnits="userSpaceOnUse" color-interpolation-filters="sRGB">
<feFlood flood-opacity="0" result="BackgroundImageFix"/>
<feColorMatrix in="SourceAlpha" type="matrix" values="0 0 0 0 0 0 0 0 0 0 0 0 0 0 0 0 0 0 127 0" result="hardAlpha"/>
<feOffset/>
<feGaussianBlur stdDeviation="28.125"/>
<feComposite in2="hardAlpha" operator="out"/>
<feColorMatrix type="matrix" values="0 0 0 0 1 0 0 0 0 1 0 0 0 0 1 0 0 0 0.2 0"/>
<feBlend mode="normal" in2="BackgroundImageFix" result="effect1_dropShadow_4669_16915"/>
<feBlend mode="normal" in="SourceGraphic" in2="effect1_dropShadow_4669_16915" result="shape"/>
</filter>
<filter id="filter19_d_4669_16915" x="84.0879" y="-110.301" width="152.906" height="152.907" filterUnits="userSpaceOnUse" color-interpolation-filters="sRGB">
<feFlood flood-opacity="0" result="BackgroundImageFix"/>
<feColorMatrix in="SourceAlpha" type="matrix" values="0 0 0 0 0 0 0 0 0 0 0 0 0 0 0 0 0 0 127 0" result="hardAlpha"/>
<feOffset/>
<feGaussianBlur stdDeviation="28.125"/>
<feComposite in2="hardAlpha" operator="out"/>
<feColorMatrix type="matrix" values="0 0 0 0 1 0 0 0 0 1 0 0 0 0 1 0 0 0 0.2 0"/>
<feBlend mode="normal" in2="BackgroundImageFix" result="effect1_dropShadow_4669_16915"/>
<feBlend mode="normal" in="SourceGraphic" in2="effect1_dropShadow_4669_16915" result="shape"/>
</filter>
<filter id="filter20_d_4669_16915" x="104.4" y="-89.484" width="147.709" height="150.529" filterUnits="userSpaceOnUse" color-interpolation-filters="sRGB">
<feFlood flood-opacity="0" result="BackgroundImageFix"/>
<feColorMatrix in="SourceAlpha" type="matrix" values="0 0 0 0 0 0 0 0 0 0 0 0 0 0 0 0 0 0 127 0" result="hardAlpha"/>
<feOffset/>
<feGaussianBlur stdDeviation="28.125"/>
<feComposite in2="hardAlpha" operator="out"/>
<feColorMatrix type="matrix" values="0 0 0 0 1 0 0 0 0 1 0 0 0 0 1 0 0 0 0.2 0"/>
<feBlend mode="normal" in2="BackgroundImageFix" result="effect1_dropShadow_4669_16915"/>
<feBlend mode="normal" in="SourceGraphic" in2="effect1_dropShadow_4669_16915" result="shape"/>
</filter>
<filter id="filter21_d_4669_16915" x="81.248" y="-138.13" width="135.816" height="158.009" filterUnits="userSpaceOnUse" color-interpolation-filters="sRGB">
<feFlood flood-opacity="0" result="BackgroundImageFix"/>
<feColorMatrix in="SourceAlpha" type="matrix" values="0 0 0 0 0 0 0 0 0 0 0 0 0 0 0 0 0 0 127 0" result="hardAlpha"/>
<feOffset/>
<feGaussianBlur stdDeviation="28.125"/>
<feComposite in2="hardAlpha" operator="out"/>
<feColorMatrix type="matrix" values="0 0 0 0 1 0 0 0 0 1 0 0 0 0 1 0 0 0 0.2 0"/>
<feBlend mode="normal" in2="BackgroundImageFix" result="effect1_dropShadow_4669_16915"/>
<feBlend mode="normal" in="SourceGraphic" in2="effect1_dropShadow_4669_16915" result="shape"/>
</filter>
<filter id="filter22_d_4669_16915" x="360.514" y="55.1935" width="152.912" height="152.912" filterUnits="userSpaceOnUse" color-interpolation-filters="sRGB">
<feFlood flood-opacity="0" result="BackgroundImageFix"/>
<feColorMatrix in="SourceAlpha" type="matrix" values="0 0 0 0 0 0 0 0 0 0 0 0 0 0 0 0 0 0 127 0" result="hardAlpha"/>
<feOffset/>
<feGaussianBlur stdDeviation="28.125"/>
<feComposite in2="hardAlpha" operator="out"/>
<feColorMatrix type="matrix" values="0 0 0 0 1 0 0 0 0 1 0 0 0 0 1 0 0 0 0.2 0"/>
<feBlend mode="normal" in2="BackgroundImageFix" result="effect1_dropShadow_4669_16915"/>
<feBlend mode="normal" in="SourceGraphic" in2="effect1_dropShadow_4669_16915" result="shape"/>
</filter>
<filter id="filter23_d_4669_16915" x="384.818" y="72.7255" width="160.641" height="125.88" filterUnits="userSpaceOnUse" color-interpolation-filters="sRGB">
<feFlood flood-opacity="0" result="BackgroundImageFix"/>
<feColorMatrix in="SourceAlpha" type="matrix" values="0 0 0 0 0 0 0 0 0 0 0 0 0 0 0 0 0 0 127 0" result="hardAlpha"/>
<feOffset/>
<feGaussianBlur stdDeviation="28.125"/>
<feComposite in2="hardAlpha" operator="out"/>
<feColorMatrix type="matrix" values="0 0 0 0 1 0 0 0 0 1 0 0 0 0 1 0 0 0 0.2 0"/>
<feBlend mode="normal" in2="BackgroundImageFix" result="effect1_dropShadow_4669_16915"/>
<feBlend mode="normal" in="SourceGraphic" in2="effect1_dropShadow_4669_16915" result="shape"/>
</filter>
<filter id="filter24_d_4669_16915" x="254.885" y="22.4273" width="152.918" height="152.918" filterUnits="userSpaceOnUse" color-interpolation-filters="sRGB">
<feFlood flood-opacity="0" result="BackgroundImageFix"/>
<feColorMatrix in="SourceAlpha" type="matrix" values="0 0 0 0 0 0 0 0 0 0 0 0 0 0 0 0 0 0 127 0" result="hardAlpha"/>
<feOffset/>
<feGaussianBlur stdDeviation="28.125"/>
<feComposite in2="hardAlpha" operator="out"/>
<feColorMatrix type="matrix" values="0 0 0 0 1 0 0 0 0 1 0 0 0 0 1 0 0 0 0.2 0"/>
<feBlend mode="normal" in2="BackgroundImageFix" result="effect1_dropShadow_4669_16915"/>
<feBlend mode="normal" in="SourceGraphic" in2="effect1_dropShadow_4669_16915" result="shape"/>
</filter>
<filter id="filter25_d_4669_16915" x="277.477" y="41.1432" width="158.785" height="133.751" filterUnits="userSpaceOnUse" color-interpolation-filters="sRGB">
<feFlood flood-opacity="0" result="BackgroundImageFix"/>
<feColorMatrix in="SourceAlpha" type="matrix" values="0 0 0 0 0 0 0 0 0 0 0 0 0 0 0 0 0 0 127 0" result="hardAlpha"/>
<feOffset/>
<feGaussianBlur stdDeviation="28.125"/>
<feComposite in2="hardAlpha" operator="out"/>
<feColorMatrix type="matrix" values="0 0 0 0 1 0 0 0 0 1 0 0 0 0 1 0 0 0 0.2 0"/>
<feBlend mode="normal" in2="BackgroundImageFix" result="effect1_dropShadow_4669_16915"/>
<feBlend mode="normal" in="SourceGraphic" in2="effect1_dropShadow_4669_16915" result="shape"/>
</filter>
<filter id="filter26_d_4669_16915" x="204.496" y="-1.30444" width="152.916" height="152.917" filterUnits="userSpaceOnUse" color-interpolation-filters="sRGB">
<feFlood flood-opacity="0" result="BackgroundImageFix"/>
<feColorMatrix in="SourceAlpha" type="matrix" values="0 0 0 0 0 0 0 0 0 0 0 0 0 0 0 0 0 0 127 0" result="hardAlpha"/>
<feOffset/>
<feGaussianBlur stdDeviation="28.125"/>
<feComposite in2="hardAlpha" operator="out"/>
<feColorMatrix type="matrix" values="0 0 0 0 1 0 0 0 0 1 0 0 0 0 1 0 0 0 0.2 0"/>
<feBlend mode="normal" in2="BackgroundImageFix" result="effect1_dropShadow_4669_16915"/>
<feBlend mode="normal" in="SourceGraphic" in2="effect1_dropShadow_4669_16915" result="shape"/>
</filter>
<filter id="filter27_d_4669_16915" x="228.053" y="18.546" width="157.35" height="137.345" filterUnits="userSpaceOnUse" color-interpolation-filters="sRGB">
<feFlood flood-opacity="0" result="BackgroundImageFix"/>
<feColorMatrix in="SourceAlpha" type="matrix" values="0 0 0 0 0 0 0 0 0 0 0 0 0 0 0 0 0 0 127 0" result="hardAlpha"/>
<feOffset/>
<feGaussianBlur stdDeviation="28.125"/>
<feComposite in2="hardAlpha" operator="out"/>
<feColorMatrix type="matrix" values="0 0 0 0 1 0 0 0 0 1 0 0 0 0 1 0 0 0 0.2 0"/>
<feBlend mode="normal" in2="BackgroundImageFix" result="effect1_dropShadow_4669_16915"/>
<feBlend mode="normal" in="SourceGraphic" in2="effect1_dropShadow_4669_16915" result="shape"/>
</filter>
<filter id="filter28_d_4669_16915" x="306.941" y="40.7745" width="152.918" height="152.918" filterUnits="userSpaceOnUse" color-interpolation-filters="sRGB">
<feFlood flood-opacity="0" result="BackgroundImageFix"/>
<feColorMatrix in="SourceAlpha" type="matrix" values="0 0 0 0 0 0 0 0 0 0 0 0 0 0 0 0 0 0 127 0" result="hardAlpha"/>
<feOffset/>
<feGaussianBlur stdDeviation="28.125"/>
<feComposite in2="hardAlpha" operator="out"/>
<feColorMatrix type="matrix" values="0 0 0 0 1 0 0 0 0 1 0 0 0 0 1 0 0 0 0.2 0"/>
<feBlend mode="normal" in2="BackgroundImageFix" result="effect1_dropShadow_4669_16915"/>
<feBlend mode="normal" in="SourceGraphic" in2="effect1_dropShadow_4669_16915" result="shape"/>
</filter>
<filter id="filter29_d_4669_16915" x="330.961" y="59.4901" width="159.428" height="131.71" filterUnits="userSpaceOnUse" color-interpolation-filters="sRGB">
<feFlood flood-opacity="0" result="BackgroundImageFix"/>
<feColorMatrix in="SourceAlpha" type="matrix" values="0 0 0 0 0 0 0 0 0 0 0 0 0 0 0 0 0 0 127 0" result="hardAlpha"/>
<feOffset/>
<feGaussianBlur stdDeviation="28.125"/>
<feComposite in2="hardAlpha" operator="out"/>
<feColorMatrix type="matrix" values="0 0 0 0 1 0 0 0 0 1 0 0 0 0 1 0 0 0 0.2 0"/>
<feBlend mode="normal" in2="BackgroundImageFix" result="effect1_dropShadow_4669_16915"/>
<feBlend mode="normal" in="SourceGraphic" in2="effect1_dropShadow_4669_16915" result="shape"/>
</filter>
<filter id="filter30_d_4669_16915" x="417.17" y="63.1132" width="152.914" height="152.915" filterUnits="userSpaceOnUse" color-interpolation-filters="sRGB">
<feFlood flood-opacity="0" result="BackgroundImageFix"/>
<feColorMatrix in="SourceAlpha" type="matrix" values="0 0 0 0 0 0 0 0 0 0 0 0 0 0 0 0 0 0 127 0" result="hardAlpha"/>
<feOffset/>
<feGaussianBlur stdDeviation="28.125"/>
<feComposite in2="hardAlpha" operator="out"/>
<feColorMatrix type="matrix" values="0 0 0 0 1 0 0 0 0 1 0 0 0 0 1 0 0 0 0.2 0"/>
<feBlend mode="normal" in2="BackgroundImageFix" result="effect1_dropShadow_4669_16915"/>
<feBlend mode="normal" in="SourceGraphic" in2="effect1_dropShadow_4669_16915" result="shape"/>
</filter>
<filter id="filter32_d_4669_16915" x="374" y="129.5" width="53.7852" height="53.7855" filterUnits="userSpaceOnUse" color-interpolation-filters="sRGB">
<feFlood flood-opacity="0" result="BackgroundImageFix"/>
<feColorMatrix in="SourceAlpha" type="matrix" values="0 0 0 0 0 0 0 0 0 0 0 0 0 0 0 0 0 0 127 0" result="hardAlpha"/>
<feOffset/>
<feGaussianBlur stdDeviation="10"/>
<feComposite in2="hardAlpha" operator="out"/>
<feColorMatrix type="matrix" values="0 0 0 0 1 0 0 0 0 1 0 0 0 0 1 0 0 0 0.8 0"/>
<feBlend mode="normal" in2="BackgroundImageFix" result="effect1_dropShadow_4669_16915"/>
<feBlend mode="normal" in="SourceGraphic" in2="effect1_dropShadow_4669_16915" result="shape"/>
</filter>
<filter id="filter33_d_4669_16915" x="84.5" y="245.5" width="53.7852" height="53.7855" filterUnits="userSpaceOnUse" color-interpolation-filters="sRGB">
<feFlood flood-opacity="0" result="BackgroundImageFix"/>
<feColorMatrix in="SourceAlpha" type="matrix" values="0 0 0 0 0 0 0 0 0 0 0 0 0 0 0 0 0 0 127 0" result="hardAlpha"/>
<feOffset/>
<feGaussianBlur stdDeviation="10"/>
<feComposite in2="hardAlpha" operator="out"/>
<feColorMatrix type="matrix" values="0 0 0 0 1 0 0 0 0 1 0 0 0 0 1 0 0 0 0.8 0"/>
<feBlend mode="normal" in2="BackgroundImageFix" result="effect1_dropShadow_4669_16915"/>
<feBlend mode="normal" in="SourceGraphic" in2="effect1_dropShadow_4669_16915" result="shape"/>
</filter>
<filter id="filter34_d_4669_16915" x="376.5" y="488" width="59.3008" height="59.2998" filterUnits="userSpaceOnUse" color-interpolation-filters="sRGB">
<feFlood flood-opacity="0" result="BackgroundImageFix"/>
<feColorMatrix in="SourceAlpha" type="matrix" values="0 0 0 0 0 0 0 0 0 0 0 0 0 0 0 0 0 0 127 0" result="hardAlpha"/>
<feOffset/>
<feGaussianBlur stdDeviation="10"/>
<feComposite in2="hardAlpha" operator="out"/>
<feColorMatrix type="matrix" values="0 0 0 0 1 0 0 0 0 1 0 0 0 0 1 0 0 0 0.8 0"/>
<feBlend mode="normal" in2="BackgroundImageFix" result="effect1_dropShadow_4669_16915"/>
<feBlend mode="normal" in="SourceGraphic" in2="effect1_dropShadow_4669_16915" result="shape"/>
</filter>
<filter id="filter35_d_4669_16915" x="6.5" y="610" width="59.3008" height="59.2998" filterUnits="userSpaceOnUse" color-interpolation-filters="sRGB">
<feFlood flood-opacity="0" result="BackgroundImageFix"/>
<feColorMatrix in="SourceAlpha" type="matrix" values="0 0 0 0 0 0 0 0 0 0 0 0 0 0 0 0 0 0 127 0" result="hardAlpha"/>
<feOffset/>
<feGaussianBlur stdDeviation="10"/>
<feComposite in2="hardAlpha" operator="out"/>
<feColorMatrix type="matrix" values="0 0 0 0 1 0 0 0 0 1 0 0 0 0 1 0 0 0 0.8 0"/>
<feBlend mode="normal" in2="BackgroundImageFix" result="effect1_dropShadow_4669_16915"/>
<feBlend mode="normal" in="SourceGraphic" in2="effect1_dropShadow_4669_16915" result="shape"/>
</filter>
<clipPath id="clip0_4669_16915">
<rect width="440" height="819" fill="white"/>
</clipPath>
</defs>
</svg>
