<svg width="17" height="17" viewBox="0 0 17 17" fill="none" xmlns="http://www.w3.org/2000/svg">
<path d="M7.06201 0.6875C10.5491 0.6875 13.3745 3.51293 13.3745 7C13.3745 8.39304 12.9224 9.67951 12.1606 10.7236L12.0659 10.8535L12.1792 10.9668L16.1353 14.9268C16.4527 15.2442 16.4527 15.7597 16.1353 16.0771C15.8178 16.3942 15.3021 16.3944 14.9849 16.0771L11.0288 12.1172L10.9155 12.0039L10.7856 12.0986C9.74186 12.8633 8.4554 13.3125 7.06201 13.3125C3.57494 13.3125 0.749512 10.4871 0.749512 7C0.749512 3.51293 3.57494 0.687501 7.06201 0.6875ZM7.06201 2.3125C6.44645 2.3125 5.83677 2.43338 5.26807 2.66895C4.69935 2.90451 4.18283 3.25027 3.74756 3.68555C3.31228 4.12082 2.96653 4.63734 2.73096 5.20605C2.4954 5.77476 2.37451 6.38444 2.37451 7C2.37451 7.61556 2.4954 8.22524 2.73096 8.79395C2.96653 9.36266 3.31228 9.87918 3.74756 10.3145C4.18283 10.7497 4.69935 11.0955 5.26807 11.3311C5.83677 11.5666 6.44645 11.6875 7.06201 11.6875C7.67757 11.6875 8.28725 11.5666 8.85596 11.3311C9.42467 11.0955 9.94119 10.7497 10.3765 10.3145C10.8117 9.87918 11.1575 9.36266 11.3931 8.79395C11.6286 8.22524 11.7495 7.61556 11.7495 7C11.7495 6.38444 11.6286 5.77476 11.3931 5.20605C11.1575 4.63734 10.8117 4.12082 10.3765 3.68555C9.94119 3.25027 9.42467 2.90451 8.85596 2.66895C8.28725 2.43338 7.67757 2.3125 7.06201 2.3125Z" fill="#7B7B7B" stroke="#D9D9D9" stroke-width="0.375"/>
</svg>
