<svg width="20" height="20" viewBox="0 0 20 20" fill="none" xmlns="http://www.w3.org/2000/svg">
<path d="M8.125 0.25C12.4752 0.25 16 3.77479 16 8.125C16 9.86297 15.4358 11.4679 14.4854 12.7705L14.3594 12.9434L14.5107 13.0947L19.4561 18.0439C19.8467 18.4346 19.8467 19.0693 19.4561 19.46C19.0898 19.8262 18.5093 19.8488 18.1162 19.5283L18.04 19.46L13.0947 14.5107L12.9434 14.3594L12.7705 14.4854C11.4684 15.4392 9.86332 16 8.125 16C3.77479 16 0.250001 12.4752 0.25 8.125C0.25 3.77479 3.77479 0.250001 8.125 0.25ZM8.125 2.25C7.35354 2.25 6.58969 2.40206 5.87695 2.69727C5.16417 2.99251 4.51625 3.42516 3.9707 3.9707C3.42516 4.51625 2.99251 5.16417 2.69727 5.87695C2.40206 6.58969 2.25 7.35354 2.25 8.125C2.25 8.89646 2.40206 9.66031 2.69727 10.373C2.99251 11.0858 3.42516 11.7338 3.9707 12.2793C4.51625 12.8248 5.16417 13.2575 5.87695 13.5527C6.58969 13.8479 7.35354 14 8.125 14C8.89646 14 9.66031 13.8479 10.373 13.5527C11.0858 13.2575 11.7338 12.8248 12.2793 12.2793C12.8248 11.7338 13.2575 11.0858 13.5527 10.373C13.8479 9.66031 14 8.89646 14 8.125C14 7.35354 13.8479 6.58969 13.5527 5.87695C13.2575 5.16417 12.8248 4.51625 12.2793 3.9707C11.7338 3.42516 11.0858 2.99251 10.373 2.69727C9.66031 2.40206 8.89646 2.25 8.125 2.25Z" fill="#7B7B7B" stroke="#D9D9D9" stroke-width="0.5"/>
</svg>
