<svg width="20" height="20" viewBox="0 0 20 20" fill="none" xmlns="http://www.w3.org/2000/svg">
<g clip-path="url(#clip0_4034_15138)">
<path d="M15.7649 8.88458L7.0061 17.6414C6.70311 17.9444 6.33497 18.1772 5.93091 18.325L5.7561 18.3826L1.05884 19.7645C0.90407 19.8076 0.73875 19.7646 0.627197 19.6531C0.515893 19.5418 0.472429 19.3768 0.518799 19.2186L1.90063 14.5184C2.02394 14.1054 2.23474 13.7245 2.51685 13.4041L2.64282 13.2703L11.3948 4.51447L15.7649 8.88458ZM14.5256 1.38751C15.3067 0.606627 16.5715 0.606122 17.3528 1.38654V1.38751L18.8918 2.93048H18.8928C19.6739 3.71175 19.6739 4.97734 18.8928 5.75861L17.3557 7.29572L12.9846 2.92462L14.3752 1.534H14.3792L14.5256 1.38751Z" fill="#181818" stroke="#E5D9B9"/>
</g>
<defs>
<clipPath id="clip0_4034_15138">
<rect width="20" height="20" fill="white"/>
</clipPath>
</defs>
</svg>
