<svg width="21" height="20" viewBox="0 0 21 20" fill="none" xmlns="http://www.w3.org/2000/svg">
<path fill-rule="evenodd" clip-rule="evenodd" d="M12.33 19.0451C12.5433 19.2438 12.8253 19.352 13.1168 19.3469C13.4082 19.3417 13.6863 19.2237 13.8924 19.0175C14.0986 18.8114 14.2166 18.5333 14.2218 18.2419C14.2269 17.9504 14.1187 17.6684 13.92 17.4551L13.215 16.7501H13.5C14.2939 16.7505 15.0738 16.541 15.7605 16.1426C16.442 15.7467 17.0075 15.1788 17.4005 14.4957C17.7935 13.8126 18.0003 13.0382 18 12.2501V8.3441H18.0045C18.424 8.22566 18.8216 8.04028 19.182 7.7951C19.9608 7.26973 20.5369 6.49427 20.8151 5.59699C21.0933 4.69971 21.0568 3.73435 20.7118 2.86058C20.3668 1.98681 19.7339 1.25697 18.9178 0.791773C18.1016 0.326578 17.1511 0.153893 16.2235 0.30228C15.2959 0.450668 14.4467 0.911237 13.8164 1.60781C13.1861 2.30439 12.8124 3.19524 12.7572 4.13304C12.702 5.07083 12.9685 5.99938 13.5127 6.76511C14.0569 7.53084 14.8462 8.08788 15.75 8.3441V12.2501C15.75 12.8468 15.513 13.4191 15.091 13.8411C14.669 14.263 14.0967 14.5001 13.5 14.5001H13.215L13.92 13.7951C14.1187 13.5818 14.2269 13.2998 14.2218 13.0083C14.2166 12.7169 14.0986 12.4388 13.8924 12.2327C13.6863 12.0266 13.4082 11.9085 13.1168 11.9033C12.8253 11.8982 12.5433 12.0064 12.33 12.2051L11.625 12.9101L9.70501 14.8301C9.49433 15.041 9.376 15.327 9.376 15.6251C9.376 15.9232 9.49433 16.2092 9.70501 16.4201L12.33 19.0451ZM7.08001 0.955102C7.29095 0.744426 7.57688 0.626092 7.87501 0.626092C8.17314 0.626092 8.45907 0.744426 8.67001 0.955102L9.37501 1.6601L11.295 3.5801C11.5057 3.79104 11.624 4.07698 11.624 4.3751C11.624 4.67323 11.5057 4.95916 11.295 5.1701L8.67001 7.7951C8.4551 7.98469 8.17601 8.08525 7.88957 8.07629C7.60312 8.06734 7.33086 7.94954 7.12821 7.7469C6.92557 7.54425 6.80778 7.27199 6.79882 6.98554C6.78987 6.6991 6.89042 6.42001 7.08001 6.2051L7.78501 5.5001H7.50001C6.90327 5.5001 6.33098 5.73715 5.90902 6.15911C5.48706 6.58107 5.25001 7.15337 5.25001 7.7501V11.6561C6.11264 11.9032 6.87164 12.4239 7.41271 13.1397C7.95379 13.8555 8.24764 14.7278 8.25001 15.6251C8.25139 16.3007 8.08623 16.9662 7.76913 17.5627C7.45203 18.1592 6.99278 18.6684 6.43201 19.0451L6.29101 19.1366C5.66628 19.5237 4.94938 19.7368 4.21461 19.7535C3.47984 19.7703 2.75396 19.5903 2.1122 19.2321C1.47045 18.8739 0.936182 18.3505 0.564791 17.7163C0.193401 17.0821 -0.00159796 16.3601 9.8628e-06 15.6251C-7.13382e-05 14.7272 0.292845 13.8537 0.834286 13.1374C1.37573 12.4211 2.13612 11.901 3.00001 11.6561V7.7501C3.00001 6.55663 3.47412 5.41204 4.31803 4.56812C5.16194 3.72421 6.30654 3.2501 7.50001 3.2501H7.78501L7.08001 2.5451C6.86933 2.33416 6.751 2.04823 6.751 1.7501C6.751 1.45198 6.86933 1.16604 7.08001 0.955102ZM5.71801 14.6366C5.90226 14.9334 5.99993 15.2758 6.00001 15.6251C6.00011 16.0774 5.8367 16.5145 5.53988 16.8559C5.24307 17.1972 4.83288 17.4197 4.38491 17.4824C3.93695 17.5451 3.48142 17.4438 3.10231 17.1971C2.72319 16.9503 2.44604 16.5749 2.32195 16.1399C2.19786 15.7049 2.23519 15.2398 2.42707 14.8301C2.61895 14.4205 2.95244 14.0941 3.36605 13.911C3.77967 13.7279 4.24553 13.7005 4.67776 13.8339C5.10999 13.9672 5.47944 14.2523 5.71801 14.6366ZM15 4.3751C15 3.87782 15.1976 3.40091 15.5492 3.04928C15.9008 2.69765 16.3777 2.5001 16.875 2.5001C17.3723 2.5001 17.8492 2.69765 18.2008 3.04928C18.5525 3.40091 18.75 3.87782 18.75 4.3751C18.75 4.87238 18.5525 5.3493 18.2008 5.70093C17.8492 6.05256 17.3723 6.2501 16.875 6.2501C16.3777 6.2501 15.9008 6.05256 15.5492 5.70093C15.1976 5.3493 15 4.87238 15 4.3751Z" fill="white"/>
</svg>
