<svg width="24" height="23" viewBox="0 0 24 23" fill="none" xmlns="http://www.w3.org/2000/svg">
<path fill-rule="evenodd" clip-rule="evenodd" d="M14.0914 21.6997C14.3351 21.9238 14.6575 22.0459 14.9906 22.0401C15.3236 22.0343 15.6415 21.9011 15.877 21.6686C16.1126 21.4361 16.2475 21.1224 16.2534 20.7937C16.2593 20.4649 16.1356 20.1468 15.9085 19.9062L15.1028 19.111H15.4285C16.3358 19.1115 17.2271 18.8751 18.0119 18.4258C18.7907 17.9792 19.4371 17.3386 19.8862 16.5681C20.3354 15.7976 20.5717 14.9241 20.5714 14.0352V9.62932H20.5765C21.0559 9.49572 21.5103 9.28662 21.9222 9.01007C22.8122 8.41747 23.4707 7.54278 23.7886 6.53067C24.1065 5.51857 24.0649 4.42968 23.6706 3.44409C23.2763 2.45851 22.553 1.63528 21.6202 1.11055C20.6875 0.585826 19.6012 0.391044 18.5411 0.55842C17.4809 0.725796 16.5105 1.2453 15.7901 2.03102C15.0698 2.81673 14.6427 3.82159 14.5796 4.87938C14.5165 5.93718 14.8211 6.98455 15.4431 7.84827C16.065 8.71199 16.967 9.34032 17.9999 9.62932V14.0352C17.9999 14.7083 17.729 15.3538 17.2468 15.8297C16.7646 16.3057 16.1105 16.5731 15.4285 16.5731H15.1028L15.9085 15.7779C16.1356 15.5373 16.2593 15.2192 16.2534 14.8904C16.2475 14.5617 16.1126 14.248 15.877 14.0155C15.6415 13.783 15.3236 13.6498 14.9906 13.644C14.6575 13.6382 14.3351 13.7603 14.0914 13.9844L13.2857 14.7796L11.0914 16.9453C10.8506 17.1832 10.7154 17.5058 10.7154 17.842C10.7154 18.1783 10.8506 18.5009 11.0914 18.7388L14.0914 21.6997ZM8.09141 1.29478C8.33248 1.05715 8.65926 0.923668 8.99998 0.923668C9.34069 0.923668 9.66747 1.05715 9.90854 1.29478L10.7143 2.09L12.9085 4.25569C13.1493 4.49362 13.2845 4.81615 13.2845 5.15243C13.2845 5.4887 13.1493 5.81123 12.9085 6.04916L9.90854 9.01007C9.66294 9.22392 9.34398 9.33735 9.01661 9.32724C8.68925 9.31714 8.37809 9.18427 8.1465 8.9557C7.91491 8.72712 7.78029 8.42002 7.77005 8.09692C7.75982 7.77382 7.87473 7.45901 8.09141 7.2166L8.89712 6.42139H8.57141C7.88942 6.42139 7.23537 6.68878 6.75314 7.16473C6.2709 7.64068 5.99999 8.28621 5.99999 8.95931V13.3651C6.98585 13.6439 7.85328 14.2311 8.47164 15.0386C9.09001 15.846 9.42583 16.8299 9.42855 17.842C9.43013 18.6041 9.24137 19.3547 8.87897 20.0276C8.51657 20.7004 7.99171 21.2747 7.35084 21.6997L7.1897 21.8029C6.47573 22.2396 5.65641 22.4799 4.81668 22.4988C3.97695 22.5177 3.14737 22.3146 2.41393 21.9106C1.6805 21.5065 1.06992 20.9162 0.645473 20.2008C0.221028 19.4855 -0.00182623 18.6711 1.12717e-05 17.842C-8.15291e-05 16.8292 0.334679 15.844 0.953466 15.036C1.57225 14.228 2.44127 13.6414 3.42857 13.3651V8.95931C3.42857 7.61311 3.9704 6.32205 4.93487 5.37015C5.89934 4.41824 7.20744 3.88346 8.57141 3.88346H8.89712L8.09141 3.08825C7.85064 2.85032 7.7154 2.52779 7.7154 2.19151C7.7154 1.85524 7.85064 1.53271 8.09141 1.29478ZM6.53484 16.7271C6.74541 17.0618 6.85704 17.448 6.85713 17.842C6.85725 18.3523 6.67048 18.8453 6.33127 19.2303C5.99206 19.6153 5.52327 19.8663 5.01131 19.937C4.49936 20.0078 3.97875 19.8935 3.54548 19.6152C3.1122 19.3369 2.79546 18.9134 2.65364 18.4227C2.51183 17.9321 2.5545 17.4074 2.77379 16.9454C2.99307 16.4833 3.3742 16.1151 3.8469 15.9086C4.31961 15.7021 4.85202 15.6712 5.34599 15.8216C5.83996 15.972 6.26219 16.2936 6.53484 16.7271ZM17.1428 5.15243C17.1428 4.59151 17.3686 4.05357 17.7704 3.65694C18.1723 3.26031 18.7173 3.03749 19.2857 3.03749C19.854 3.03749 20.399 3.26031 20.8009 3.65694C21.2027 4.05357 21.4285 4.59151 21.4285 5.15243C21.4285 5.71334 21.2027 6.25128 20.8009 6.64791C20.399 7.04454 19.854 7.26736 19.2857 7.26736C18.7173 7.26736 18.1723 7.04454 17.7704 6.64791C17.3686 6.25128 17.1428 5.71334 17.1428 5.15243Z" fill="white"/>
</svg>
