<svg width="28" height="28" viewBox="0 0 28 28" fill="none" xmlns="http://www.w3.org/2000/svg">
<path d="M8.75 18.583C10.4425 18.583 11.8957 19.5902 12.5293 21.0342L12.5957 21.1836H26.25C27.0822 21.1836 27.75 21.8486 27.75 22.667C27.7498 23.4853 27.082 24.1504 26.25 24.1504H12.5957L12.5293 24.2998C11.8956 25.7436 10.4423 26.75 8.75 26.75C7.05767 26.75 5.6044 25.7436 4.9707 24.2998L4.9043 24.1504H1.75C0.917952 24.1504 0.250177 23.4853 0.25 22.667C0.25 21.8486 0.917841 21.1836 1.75 21.1836H4.9043L4.9707 21.0342C5.60432 19.5902 7.05753 18.583 8.75 18.583ZM8.75 20.6836C8.28653 20.6836 7.83935 20.8429 7.4834 21.1318L7.33691 21.2637C6.96158 21.6354 6.75 22.1402 6.75 22.667C6.75008 23.128 6.91208 23.572 7.2041 23.9248L7.33691 24.0703C7.71213 24.4418 8.22049 24.6504 8.75 24.6504C9.21354 24.6504 9.66062 24.4901 10.0166 24.2012L10.1631 24.0703C10.5383 23.6986 10.7499 23.1937 10.75 22.667C10.75 22.2061 10.5878 21.762 10.2959 21.4092L10.1631 21.2637C9.78783 20.892 9.27966 20.6836 8.75 20.6836ZM19.25 9.91699C20.9424 9.91699 22.3957 10.9233 23.0293 12.3672L23.0957 12.5166H26.25C27.0822 12.5166 27.75 13.1816 27.75 14C27.75 14.8184 27.0822 15.4834 26.25 15.4834H23.0957L23.0293 15.6328C22.3957 17.0767 20.9424 18.083 19.25 18.083C17.5576 18.083 16.1043 17.0767 15.4707 15.6328L15.4043 15.4834H1.75C0.917842 15.4834 0.25 14.8184 0.25 14C0.25 13.1816 0.917842 12.5166 1.75 12.5166H15.4043L15.4707 12.3672C16.1043 10.9233 17.5576 9.91699 19.25 9.91699ZM19.25 12.0166C18.7866 12.0166 18.3393 12.176 17.9834 12.4648L17.8369 12.5967C17.4616 12.9684 17.25 13.4732 17.25 14C17.25 14.461 17.4121 14.9049 17.7041 15.2578L17.8369 15.4033C18.2122 15.7749 18.7204 15.9834 19.25 15.9834C19.7134 15.9834 20.1607 15.824 20.5166 15.5352L20.6631 15.4033C21.0384 15.0316 21.25 14.5268 21.25 14C21.25 13.539 21.0879 13.0951 20.7959 12.7422L20.6631 12.5967C20.2878 12.2251 19.7796 12.0166 19.25 12.0166ZM10.5 1.25C12.1923 1.25 13.6456 2.25644 14.2793 3.7002L14.3457 3.84961H26.25C27.082 3.84961 27.7498 4.51473 27.75 5.33301C27.75 6.15144 27.0822 6.81641 26.25 6.81641H14.3457L14.2793 6.96582C13.6457 8.40977 12.1925 9.41699 10.5 9.41699C8.80753 9.41699 7.35432 8.40977 6.7207 6.96582L6.6543 6.81641H1.75C0.917841 6.81641 0.25 6.15144 0.25 5.33301C0.250177 4.51473 0.917952 3.84961 1.75 3.84961H6.6543L6.7207 3.7002C7.3544 2.25644 8.80767 1.25 10.5 1.25ZM10.5 3.34961C10.0365 3.34961 9.58938 3.50985 9.2334 3.79883L9.08691 3.92969C8.71166 4.30137 8.50009 4.80634 8.5 5.33301C8.5 5.79395 8.66221 6.23796 8.9541 6.59082L9.08691 6.73633C9.46217 7.10801 9.97034 7.31641 10.5 7.31641C10.9635 7.31641 11.4106 7.15706 11.7666 6.86816L11.9131 6.73633C12.2884 6.36457 12.5 5.8598 12.5 5.33301C12.4999 4.87202 12.3379 4.42803 12.0459 4.0752L11.9131 3.92969C11.5847 3.60462 11.1545 3.40429 10.6973 3.35938L10.5 3.34961Z" fill="#1C4B69" stroke="white" stroke-width="0.5"/>
</svg>
