<svg width="132" height="64" viewBox="0 0 132 64" fill="none" xmlns="http://www.w3.org/2000/svg">
<path d="M11.3149 15.24C9.96825 15.24 8.76825 14.9333 7.71492 14.32C6.67492 13.6933 5.85492 12.84 5.25492 11.76C4.66825 10.6667 4.37492 9.41333 4.37492 8C4.37492 6.58667 4.66825 5.34 5.25492 4.26C5.85492 3.16667 6.67492 2.31333 7.71492 1.7C8.75492 1.07333 9.94825 0.76 11.2949 0.76C12.2016 0.76 13.0549 0.926666 13.8549 1.26C14.6549 1.58 15.3616 2.02667 15.9749 2.6C16.6016 3.17333 17.0816 3.84 17.4149 4.6L15.2949 5.46C15.0549 4.95333 14.7283 4.50667 14.3149 4.12C13.9149 3.72 13.4549 3.41333 12.9349 3.2C12.4149 2.98667 11.8683 2.88 11.2949 2.88C10.4149 2.88 9.62825 3.1 8.93492 3.54C8.25492 3.98 7.71492 4.58667 7.31492 5.36C6.92825 6.12 6.73492 7 6.73492 8C6.73492 9 6.92825 9.88667 7.31492 10.66C7.71492 11.4333 8.26159 12.04 8.95492 12.48C9.66159 12.92 10.4616 13.14 11.3549 13.14C11.9416 13.14 12.4883 13.0267 12.9949 12.8C13.5149 12.56 13.9749 12.2333 14.3749 11.82C14.7883 11.4067 15.1149 10.9267 15.3549 10.38L17.4749 11.24C17.1416 12.0267 16.6683 12.7267 16.0549 13.34C15.4416 13.94 14.7283 14.4067 13.9149 14.74C13.1016 15.0733 12.2349 15.24 11.3149 15.24ZM18.888 15V0.999999H21.128V15H18.888ZM23.3546 15V5H25.5746V15H23.3546ZM24.4746 3.1C24.1146 3.1 23.8013 2.97333 23.5346 2.72C23.2813 2.45333 23.1546 2.14 23.1546 1.78C23.1546 1.42 23.2813 1.11333 23.5346 0.86C23.8013 0.606666 24.1146 0.48 24.4746 0.48C24.8346 0.48 25.1413 0.606666 25.3946 0.86C25.6613 1.11333 25.7946 1.42 25.7946 1.78C25.7946 2.14 25.6613 2.45333 25.3946 2.72C25.1413 2.97333 24.8346 3.1 24.4746 3.1ZM32.4946 15.24C31.4679 15.24 30.5613 15.02 29.7746 14.58C28.9879 14.1267 28.3679 13.5067 27.9146 12.72C27.4746 11.9333 27.2546 11.0267 27.2546 10C27.2546 8.97333 27.4746 8.06667 27.9146 7.28C28.3679 6.49333 28.9813 5.88 29.7546 5.44C30.5413 4.98667 31.4413 4.76 32.4546 4.76C33.4413 4.76 34.3346 5 35.1346 5.48C35.9346 5.94667 36.5279 6.62 36.9146 7.5L34.8346 8.3C34.6213 7.86 34.2946 7.50667 33.8546 7.24C33.4146 6.97333 32.9146 6.84 32.3546 6.84C31.8079 6.84 31.3213 6.98 30.8946 7.26C30.4679 7.52667 30.1346 7.9 29.8946 8.38C29.6546 8.84667 29.5346 9.38667 29.5346 10C29.5346 10.6133 29.6546 11.16 29.8946 11.64C30.1479 12.1067 30.4879 12.48 30.9146 12.76C31.3546 13.0267 31.8479 13.16 32.3946 13.16C32.9546 13.16 33.4546 13.02 33.8946 12.74C34.3346 12.4467 34.6613 12.0533 34.8746 11.56L36.9546 12.36C36.5679 13.2667 35.9746 13.9733 35.1746 14.48C34.3879 14.9867 33.4946 15.24 32.4946 15.24ZM40.4335 12.2L39.0735 10.66L44.2735 5H46.9735L40.4335 12.2ZM38.2935 15V0.999999H40.5335V15H38.2935ZM44.6535 15L41.1335 9.82L42.5935 8.26L47.3135 15H44.6535ZM57.2498 15.24C56.2498 15.24 55.3564 15.02 54.5698 14.58C53.7964 14.1267 53.1898 13.5067 52.7498 12.72C52.3098 11.9333 52.0898 11.0267 52.0898 10C52.0898 8.97333 52.3031 8.06667 52.7298 7.28C53.1698 6.49333 53.7764 5.88 54.5498 5.44C55.3231 4.98667 56.2098 4.76 57.2098 4.76C58.2098 4.76 59.0964 4.98667 59.8698 5.44C60.6431 5.88 61.2431 6.49333 61.6698 7.28C62.1098 8.06667 62.3298 8.97333 62.3298 10C62.3298 11.0267 62.1164 11.9333 61.6898 12.72C61.2631 13.5067 60.6631 14.1267 59.8898 14.58C59.1164 15.02 58.2364 15.24 57.2498 15.24ZM57.2498 13.18C57.7964 13.18 58.2831 13.0467 58.7098 12.78C59.1364 12.5 59.4698 12.1267 59.7098 11.66C59.9498 11.18 60.0698 10.6267 60.0698 10C60.0698 9.37333 59.9431 8.82667 59.6898 8.36C59.4498 7.88 59.1164 7.50667 58.6898 7.24C58.2631 6.96 57.7698 6.82 57.2098 6.82C56.6498 6.82 56.1564 6.95333 55.7298 7.22C55.3031 7.48667 54.9698 7.86 54.7298 8.34C54.4898 8.82 54.3698 9.37333 54.3698 10C54.3698 10.6267 54.4898 11.18 54.7298 11.66C54.9831 12.1267 55.3231 12.5 55.7498 12.78C56.1898 13.0467 56.6898 13.18 57.2498 13.18ZM63.8709 15V5H65.9709L66.1109 6.84V15H63.8709ZM70.6509 15V9.88H72.8909V15H70.6509ZM70.6509 9.88C70.6509 9.08 70.5575 8.46667 70.3709 8.04C70.1975 7.6 69.9442 7.29333 69.6109 7.12C69.2909 6.94667 68.9109 6.86 68.4709 6.86C67.7242 6.84667 67.1442 7.09333 66.7309 7.6C66.3175 8.10667 66.1109 8.83333 66.1109 9.78H65.2709C65.2709 8.72667 65.4242 7.82667 65.7309 7.08C66.0375 6.32 66.4775 5.74667 67.0509 5.36C67.6242 4.96 68.3042 4.76 69.0909 4.76C69.8909 4.76 70.5709 4.92 71.1309 5.24C71.7042 5.56 72.1375 6.06 72.4309 6.74C72.7375 7.40667 72.8909 8.28 72.8909 9.36V9.88H70.6509ZM79.1841 15V5H81.2841L81.3841 6.34C81.6908 5.82 82.0841 5.42667 82.5641 5.16C83.0441 4.89333 83.5908 4.76 84.2041 4.76C85.0041 4.76 85.6841 4.94 86.2441 5.3C86.8041 5.66 87.2108 6.20667 87.4641 6.94C87.7575 6.23333 88.1708 5.69333 88.7041 5.32C89.2375 4.94667 89.8641 4.76 90.5841 4.76C91.7441 4.76 92.6375 5.13333 93.2641 5.88C93.8908 6.61333 94.1975 7.74667 94.1841 9.28V15H91.9641V9.88C91.9641 9.08 91.8775 8.46667 91.7041 8.04C91.5308 7.6 91.2975 7.29333 91.0041 7.12C90.7108 6.94667 90.3708 6.86 89.9841 6.86C89.2908 6.84667 88.7508 7.09333 88.3641 7.6C87.9908 8.10667 87.8041 8.83333 87.8041 9.78V15H85.5641V9.88C85.5641 9.08 85.4775 8.46667 85.3041 8.04C85.1441 7.6 84.9175 7.29333 84.6241 7.12C84.3308 6.94667 83.9908 6.86 83.6041 6.86C82.9108 6.84667 82.3708 7.09333 81.9841 7.6C81.6108 8.10667 81.4241 8.83333 81.4241 9.78V15H79.1841ZM100.529 15.24C99.556 15.24 98.6893 15.02 97.9293 14.58C97.1826 14.1267 96.5893 13.5067 96.1493 12.72C95.7226 11.9333 95.5093 11.0267 95.5093 10C95.5093 8.97333 95.7293 8.06667 96.1693 7.28C96.6093 6.49333 97.2093 5.88 97.9693 5.44C98.7426 4.98667 99.6226 4.76 100.609 4.76C101.503 4.76 102.309 4.99333 103.029 5.46C103.749 5.91333 104.316 6.57333 104.729 7.44C105.156 8.30667 105.369 9.34 105.369 10.54H97.5093L97.8093 10.26C97.8093 10.8733 97.9426 11.4067 98.2093 11.86C98.476 12.3 98.8293 12.64 99.2693 12.88C99.7093 13.12 100.196 13.24 100.729 13.24C101.343 13.24 101.849 13.1067 102.249 12.84C102.649 12.56 102.963 12.2 103.189 11.76L105.169 12.6C104.889 13.1333 104.529 13.6 104.089 14C103.663 14.4 103.149 14.7067 102.549 14.92C101.963 15.1333 101.289 15.24 100.529 15.24ZM97.9493 9.1L97.6293 8.82H103.269L102.969 9.1C102.969 8.55333 102.849 8.10667 102.609 7.76C102.369 7.4 102.063 7.13333 101.689 6.96C101.329 6.77333 100.949 6.68 100.549 6.68C100.149 6.68 99.7493 6.77333 99.3493 6.96C98.9493 7.13333 98.616 7.4 98.3493 7.76C98.0826 8.10667 97.9493 8.55333 97.9493 9.1ZM115.089 15.24C114.036 15.24 113.229 14.98 112.669 14.46C112.122 13.9267 111.849 13.1667 111.849 12.18V1.88H114.069V11.76C114.069 12.2267 114.176 12.58 114.389 12.82C114.616 13.06 114.942 13.18 115.369 13.18C115.502 13.18 115.649 13.1533 115.809 13.1C115.969 13.0467 116.149 12.9467 116.349 12.8L117.169 14.5C116.822 14.74 116.476 14.92 116.129 15.04C115.782 15.1733 115.436 15.24 115.089 15.24ZM110.189 6.92V5H116.769V6.92H110.189ZM123.024 15.24C122.024 15.24 121.131 15.02 120.344 14.58C119.571 14.1267 118.964 13.5067 118.524 12.72C118.084 11.9333 117.864 11.0267 117.864 10C117.864 8.97333 118.077 8.06667 118.504 7.28C118.944 6.49333 119.551 5.88 120.324 5.44C121.097 4.98667 121.984 4.76 122.984 4.76C123.984 4.76 124.871 4.98667 125.644 5.44C126.417 5.88 127.017 6.49333 127.444 7.28C127.884 8.06667 128.104 8.97333 128.104 10C128.104 11.0267 127.891 11.9333 127.464 12.72C127.037 13.5067 126.437 14.1267 125.664 14.58C124.891 15.02 124.011 15.24 123.024 15.24ZM123.024 13.18C123.571 13.18 124.057 13.0467 124.484 12.78C124.911 12.5 125.244 12.1267 125.484 11.66C125.724 11.18 125.844 10.6267 125.844 10C125.844 9.37333 125.717 8.82667 125.464 8.36C125.224 7.88 124.891 7.50667 124.464 7.24C124.037 6.96 123.544 6.82 122.984 6.82C122.424 6.82 121.931 6.95333 121.504 7.22C121.077 7.48667 120.744 7.86 120.504 8.34C120.264 8.82 120.144 9.37333 120.144 10C120.144 10.6267 120.264 11.18 120.504 11.66C120.757 12.1267 121.097 12.5 121.524 12.78C121.964 13.0467 122.464 13.18 123.024 13.18ZM4.44641 39.24C3.77974 39.24 3.16641 39.14 2.60641 38.94C2.04641 38.74 1.56641 38.46 1.16641 38.1C0.766406 37.7267 0.45974 37.2933 0.246406 36.8L2.18641 35.94C2.38641 36.3133 2.67974 36.6267 3.06641 36.88C3.46641 37.1333 3.90641 37.26 4.38641 37.26C4.90641 37.26 5.31974 37.1733 5.62641 37C5.94641 36.8133 6.10641 36.56 6.10641 36.24C6.10641 35.9333 5.98641 35.7 5.74641 35.54C5.50641 35.3667 5.16641 35.2267 4.72641 35.12L3.78641 34.86C2.83974 34.62 2.09974 34.24 1.56641 33.72C1.03307 33.1867 0.766406 32.58 0.766406 31.9C0.766406 30.9 1.08641 30.1267 1.72641 29.58C2.37974 29.0333 3.31307 28.76 4.52641 28.76C5.13974 28.76 5.69974 28.8533 6.20641 29.04C6.72641 29.2133 7.17307 29.4667 7.54641 29.8C7.91974 30.12 8.17974 30.5 8.32641 30.94L6.46641 31.78C6.33307 31.4467 6.07974 31.1933 5.70641 31.02C5.33307 30.8333 4.91974 30.74 4.46641 30.74C4.01307 30.74 3.65974 30.84 3.40641 31.04C3.15307 31.2267 3.02641 31.4933 3.02641 31.84C3.02641 32.04 3.13974 32.2267 3.36641 32.4C3.59307 32.56 3.91974 32.6933 4.34641 32.8L5.52641 33.08C6.17974 33.24 6.71307 33.4933 7.12641 33.84C7.53974 34.1733 7.84641 34.5533 8.04641 34.98C8.24641 35.3933 8.34641 35.8133 8.34641 36.24C8.34641 36.84 8.17307 37.3667 7.82641 37.82C7.49307 38.2733 7.03307 38.6267 6.44641 38.88C5.85974 39.12 5.19307 39.24 4.44641 39.24ZM9.74281 39V25H11.9828V39H9.74281ZM16.5228 39V33.88H18.7628V39H16.5228ZM16.5228 33.88C16.5228 33.08 16.4295 32.4667 16.2428 32.04C16.0561 31.6 15.7961 31.2933 15.4628 31.12C15.1428 30.9467 14.7695 30.86 14.3428 30.86C13.5828 30.8467 12.9961 31.0933 12.5828 31.6C12.1828 32.1067 11.9828 32.8333 11.9828 33.78H11.1228C11.1228 32.7267 11.2761 31.8267 11.5828 31.08C11.9028 30.32 12.3495 29.7467 12.9228 29.36C13.4961 28.96 14.1761 28.76 14.9628 28.76C15.7495 28.76 16.4295 28.92 17.0028 29.24C17.5761 29.56 18.0095 30.06 18.3028 30.74C18.6095 31.4067 18.7628 32.28 18.7628 33.36V33.88H16.5228ZM26.7314 39L26.6314 37.12V33.86C26.6314 33.18 26.5581 32.6133 26.4114 32.16C26.2781 31.6933 26.0514 31.34 25.7314 31.1C25.4247 30.8467 25.0114 30.72 24.4914 30.72C24.0114 30.72 23.5914 30.82 23.2314 31.02C22.8714 31.22 22.5647 31.5333 22.3114 31.96L20.3514 31.24C20.5647 30.8 20.8447 30.3933 21.1914 30.02C21.5514 29.6333 21.9981 29.3267 22.5314 29.1C23.0781 28.8733 23.7314 28.76 24.4914 28.76C25.4647 28.76 26.2781 28.9533 26.9314 29.34C27.5847 29.7133 28.0647 30.2533 28.3714 30.96C28.6914 31.6667 28.8514 32.52 28.8514 33.52L28.7914 39H26.7314ZM23.8514 39.24C22.6514 39.24 21.7181 38.9733 21.0514 38.44C20.3981 37.9067 20.0714 37.1533 20.0714 36.18C20.0714 35.14 20.4181 34.3467 21.1114 33.8C21.8181 33.2533 22.7981 32.98 24.0514 32.98H26.7314V34.7H24.7714C23.8781 34.7 23.2514 34.8267 22.8914 35.08C22.5314 35.32 22.3514 35.6667 22.3514 36.12C22.3514 36.5067 22.5047 36.8133 22.8114 37.04C23.1314 37.2533 23.5714 37.36 24.1314 37.36C24.6381 37.36 25.0781 37.2467 25.4514 37.02C25.8247 36.7933 26.1114 36.4933 26.3114 36.12C26.5247 35.7467 26.6314 35.3267 26.6314 34.86H27.2914C27.2914 36.22 27.0181 37.2933 26.4714 38.08C25.9247 38.8533 25.0514 39.24 23.8514 39.24ZM32.1997 33.68C32.1997 32.6 32.4064 31.7133 32.8197 31.02C33.233 30.3267 33.7664 29.8133 34.4197 29.48C35.0864 29.1333 35.7797 28.96 36.4997 28.96V31.1C35.8864 31.1 35.3064 31.1867 34.7597 31.36C34.2264 31.52 33.793 31.7867 33.4597 32.16C33.1264 32.5333 32.9597 33.0267 32.9597 33.64L32.1997 33.68ZM30.7197 39V29H32.9597V39H30.7197ZM42.0453 39.24C41.072 39.24 40.2053 39.02 39.4453 38.58C38.6986 38.1267 38.1053 37.5067 37.6653 36.72C37.2386 35.9333 37.0253 35.0267 37.0253 34C37.0253 32.9733 37.2453 32.0667 37.6853 31.28C38.1253 30.4933 38.7253 29.88 39.4853 29.44C40.2586 28.9867 41.1386 28.76 42.1253 28.76C43.0186 28.76 43.8253 28.9933 44.5453 29.46C45.2653 29.9133 45.832 30.5733 46.2453 31.44C46.672 32.3067 46.8853 33.34 46.8853 34.54H39.0253L39.3253 34.26C39.3253 34.8733 39.4586 35.4067 39.7253 35.86C39.992 36.3 40.3453 36.64 40.7853 36.88C41.2253 37.12 41.712 37.24 42.2453 37.24C42.8586 37.24 43.3653 37.1067 43.7653 36.84C44.1653 36.56 44.4786 36.2 44.7053 35.76L46.6853 36.6C46.4053 37.1333 46.0453 37.6 45.6053 38C45.1786 38.4 44.6653 38.7067 44.0653 38.92C43.4786 39.1333 42.8053 39.24 42.0453 39.24ZM39.4653 33.1L39.1453 32.82H44.7853L44.4853 33.1C44.4853 32.5533 44.3653 32.1067 44.1253 31.76C43.8853 31.4 43.5786 31.1333 43.2053 30.96C42.8453 30.7733 42.4653 30.68 42.0653 30.68C41.6653 30.68 41.2653 30.7733 40.8653 30.96C40.4653 31.1333 40.132 31.4 39.8653 31.76C39.5986 32.1067 39.4653 32.5533 39.4653 33.1ZM59.1052 39.24C57.7585 39.24 56.5585 38.9333 55.5052 38.32C54.4652 37.6933 53.6452 36.84 53.0452 35.76C52.4585 34.6667 52.1652 33.4133 52.1652 32C52.1652 30.5867 52.4585 29.34 53.0452 28.26C53.6452 27.1667 54.4652 26.3133 55.5052 25.7C56.5452 25.0733 57.7385 24.76 59.0852 24.76C59.9918 24.76 60.8452 24.9267 61.6452 25.26C62.4452 25.58 63.1518 26.0267 63.7652 26.6C64.3918 27.1733 64.8718 27.84 65.2052 28.6L63.0852 29.46C62.8452 28.9533 62.5185 28.5067 62.1052 28.12C61.7052 27.72 61.2452 27.4133 60.7252 27.2C60.2052 26.9867 59.6585 26.88 59.0852 26.88C58.2052 26.88 57.4185 27.1 56.7252 27.54C56.0452 27.98 55.5052 28.5867 55.1052 29.36C54.7185 30.12 54.5252 31 54.5252 32C54.5252 33 54.7185 33.8867 55.1052 34.66C55.5052 35.4333 56.0518 36.04 56.7452 36.48C57.4518 36.92 58.2518 37.14 59.1452 37.14C59.7318 37.14 60.2785 37.0267 60.7852 36.8C61.3052 36.56 61.7652 36.2333 62.1652 35.82C62.5785 35.4067 62.9052 34.9267 63.1452 34.38L65.2652 35.24C64.9318 36.0267 64.4585 36.7267 63.8452 37.34C63.2318 37.94 62.5185 38.4067 61.7052 38.74C60.8918 39.0733 60.0252 39.24 59.1052 39.24ZM72.7783 39L72.6783 37.12V33.86C72.6783 33.18 72.6049 32.6133 72.4583 32.16C72.3249 31.6933 72.0983 31.34 71.7783 31.1C71.4716 30.8467 71.0583 30.72 70.5383 30.72C70.0583 30.72 69.6383 30.82 69.2783 31.02C68.9183 31.22 68.6116 31.5333 68.3583 31.96L66.3983 31.24C66.6116 30.8 66.8916 30.3933 67.2383 30.02C67.5983 29.6333 68.0449 29.3267 68.5783 29.1C69.1249 28.8733 69.7783 28.76 70.5383 28.76C71.5116 28.76 72.3249 28.9533 72.9783 29.34C73.6316 29.7133 74.1116 30.2533 74.4183 30.96C74.7383 31.6667 74.8983 32.52 74.8983 33.52L74.8383 39H72.7783ZM69.8983 39.24C68.6983 39.24 67.7649 38.9733 67.0983 38.44C66.4449 37.9067 66.1183 37.1533 66.1183 36.18C66.1183 35.14 66.4649 34.3467 67.1583 33.8C67.8649 33.2533 68.8449 32.98 70.0983 32.98H72.7783V34.7H70.8183C69.9249 34.7 69.2983 34.8267 68.9383 35.08C68.5783 35.32 68.3983 35.6667 68.3983 36.12C68.3983 36.5067 68.5516 36.8133 68.8583 37.04C69.1783 37.2533 69.6183 37.36 70.1783 37.36C70.6849 37.36 71.1249 37.2467 71.4983 37.02C71.8716 36.7933 72.1583 36.4933 72.3583 36.12C72.5716 35.7467 72.6783 35.3267 72.6783 34.86H73.3383C73.3383 36.22 73.0649 37.2933 72.5183 38.08C71.9716 38.8533 71.0983 39.24 69.8983 39.24ZM80.7466 39.24C79.6932 39.24 78.8866 38.98 78.3266 38.46C77.7799 37.9267 77.5066 37.1667 77.5066 36.18V25.88H79.7266V35.76C79.7266 36.2267 79.8332 36.58 80.0466 36.82C80.2732 37.06 80.5999 37.18 81.0266 37.18C81.1599 37.18 81.3066 37.1533 81.4666 37.1C81.6266 37.0467 81.8066 36.9467 82.0066 36.8L82.8266 38.5C82.4799 38.74 82.1332 38.92 81.7866 39.04C81.4399 39.1733 81.0932 39.24 80.7466 39.24ZM75.8466 30.92V29H82.4266V30.92H75.8466ZM88.1981 39.24C87.1448 39.24 86.3381 38.98 85.7781 38.46C85.2315 37.9267 84.9581 37.1667 84.9581 36.18V25.88H87.1781V35.76C87.1781 36.2267 87.2848 36.58 87.4981 36.82C87.7248 37.06 88.0515 37.18 88.4781 37.18C88.6115 37.18 88.7581 37.1533 88.9181 37.1C89.0781 37.0467 89.2581 36.9467 89.4581 36.8L90.2781 38.5C89.9315 38.74 89.5848 38.92 89.2381 39.04C88.8915 39.1733 88.5448 39.24 88.1981 39.24ZM83.2981 30.92V29H89.8781V30.92H83.2981ZM91.6697 39V25H93.9097V39H91.6697ZM100.456 39.24C99.4829 39.24 98.6162 39.02 97.8562 38.58C97.1096 38.1267 96.5162 37.5067 96.0762 36.72C95.6496 35.9333 95.4362 35.0267 95.4362 34C95.4362 32.9733 95.6562 32.0667 96.0962 31.28C96.5362 30.4933 97.1362 29.88 97.8962 29.44C98.6696 28.9867 99.5496 28.76 100.536 28.76C101.43 28.76 102.236 28.9933 102.956 29.46C103.676 29.9133 104.243 30.5733 104.656 31.44C105.083 32.3067 105.296 33.34 105.296 34.54H97.4362L97.7362 34.26C97.7362 34.8733 97.8696 35.4067 98.1362 35.86C98.4029 36.3 98.7562 36.64 99.1962 36.88C99.6362 37.12 100.123 37.24 100.656 37.24C101.27 37.24 101.776 37.1067 102.176 36.84C102.576 36.56 102.89 36.2 103.116 35.76L105.096 36.6C104.816 37.1333 104.456 37.6 104.016 38C103.59 38.4 103.076 38.7067 102.476 38.92C101.89 39.1333 101.216 39.24 100.456 39.24ZM97.8762 33.1L97.5562 32.82H103.196L102.896 33.1C102.896 32.5533 102.776 32.1067 102.536 31.76C102.296 31.4 101.99 31.1333 101.616 30.96C101.256 30.7733 100.876 30.68 100.476 30.68C100.076 30.68 99.6762 30.7733 99.2762 30.96C98.8762 31.1333 98.5429 31.4 98.2762 31.76C98.0096 32.1067 97.8762 32.5533 97.8762 33.1ZM106.612 39V25H108.852V39H106.612ZM115.538 39.24C114.538 39.24 113.645 39.02 112.858 38.58C112.085 38.1267 111.478 37.5067 111.038 36.72C110.598 35.9333 110.378 35.0267 110.378 34C110.378 32.9733 110.592 32.0667 111.018 31.28C111.458 30.4933 112.065 29.88 112.838 29.44C113.612 28.9867 114.498 28.76 115.498 28.76C116.498 28.76 117.385 28.9867 118.158 29.44C118.932 29.88 119.532 30.4933 119.958 31.28C120.398 32.0667 120.618 32.9733 120.618 34C120.618 35.0267 120.405 35.9333 119.978 36.72C119.552 37.5067 118.952 38.1267 118.178 38.58C117.405 39.02 116.525 39.24 115.538 39.24ZM115.538 37.18C116.085 37.18 116.572 37.0467 116.998 36.78C117.425 36.5 117.758 36.1267 117.998 35.66C118.238 35.18 118.358 34.6267 118.358 34C118.358 33.3733 118.232 32.8267 117.978 32.36C117.738 31.88 117.405 31.5067 116.978 31.24C116.552 30.96 116.058 30.82 115.498 30.82C114.938 30.82 114.445 30.9533 114.018 31.22C113.592 31.4867 113.258 31.86 113.018 32.34C112.778 32.82 112.658 33.3733 112.658 34C112.658 34.6267 112.778 35.18 113.018 35.66C113.272 36.1267 113.612 36.5 114.038 36.78C114.478 37.0467 114.978 37.18 115.538 37.18ZM126.46 43.26C125.753 43.26 125.113 43.2 124.54 43.08C123.98 42.96 123.506 42.82 123.12 42.66C122.733 42.5 122.433 42.3467 122.22 42.2L123.08 40.4C123.266 40.4933 123.513 40.6067 123.82 40.74C124.14 40.8867 124.513 41.0133 124.94 41.12C125.366 41.2267 125.846 41.28 126.38 41.28C126.953 41.28 127.466 41.16 127.92 40.92C128.373 40.6933 128.726 40.34 128.98 39.86C129.233 39.38 129.36 38.7667 129.36 38.02V29H131.6V37.96C131.6 39.0933 131.386 40.0533 130.96 40.84C130.533 41.64 129.933 42.24 129.16 42.64C128.386 43.0533 127.486 43.26 126.46 43.26ZM126.12 38.8C125.213 38.8 124.42 38.5933 123.74 38.18C123.073 37.7667 122.546 37.1933 122.16 36.46C121.786 35.7133 121.6 34.8533 121.6 33.88C121.6 32.84 121.786 31.94 122.16 31.18C122.546 30.42 123.073 29.8267 123.74 29.4C124.42 28.9733 125.213 28.76 126.12 28.76C126.933 28.76 127.64 28.9733 128.24 29.4C128.853 29.8267 129.326 30.4267 129.66 31.2C129.993 31.96 130.16 32.86 130.16 33.9C130.16 34.8867 129.993 35.7467 129.66 36.48C129.326 37.2133 128.853 37.7867 128.24 38.2C127.64 38.6 126.933 38.8 126.12 38.8ZM126.74 36.9C127.246 36.9 127.686 36.7667 128.06 36.5C128.446 36.2333 128.746 35.8733 128.96 35.42C129.173 34.9533 129.28 34.42 129.28 33.82C129.28 33.2067 129.173 32.6733 128.96 32.22C128.746 31.7533 128.446 31.3933 128.06 31.14C127.673 30.8733 127.226 30.74 126.72 30.74C126.186 30.74 125.713 30.8733 125.3 31.14C124.9 31.3933 124.58 31.7533 124.34 32.22C124.113 32.6733 124 33.2067 124 33.82C124 34.42 124.113 34.9533 124.34 35.42C124.58 35.8733 124.906 36.2333 125.32 36.5C125.733 36.7667 126.206 36.9 126.74 36.9ZM21.4977 63L24.8377 53H27.0977L23.6977 63H21.4977ZM14.7977 63L18.0577 53H20.0377L16.8177 63H14.7977ZM14.5977 63L11.1977 53H13.4577L16.7177 63H14.5977ZM21.4777 63L18.2777 53H20.2577L23.5177 63H21.4777ZM28.2863 63V53H30.5063V63H28.2863ZM29.4063 51.1C29.0463 51.1 28.7329 50.9733 28.4663 50.72C28.2129 50.4533 28.0863 50.14 28.0863 49.78C28.0863 49.42 28.2129 49.1133 28.4663 48.86C28.7329 48.6067 29.0463 48.48 29.4063 48.48C29.7663 48.48 30.0729 48.6067 30.3263 48.86C30.5929 49.1133 30.7263 49.42 30.7263 49.78C30.7263 50.14 30.5929 50.4533 30.3263 50.72C30.0729 50.9733 29.7663 51.1 29.4063 51.1ZM36.7263 63.24C35.6729 63.24 34.8663 62.98 34.3063 62.46C33.7596 61.9267 33.4863 61.1667 33.4863 60.18V49.88H35.7063V59.76C35.7063 60.2267 35.8129 60.58 36.0263 60.82C36.2529 61.06 36.5796 61.18 37.0063 61.18C37.1396 61.18 37.2863 61.1533 37.4463 61.1C37.6063 61.0467 37.7863 60.9467 37.9863 60.8L38.8063 62.5C38.4596 62.74 38.1129 62.92 37.7663 63.04C37.4196 63.1733 37.0729 63.24 36.7263 63.24ZM31.8263 54.92V53H38.4063V54.92H31.8263ZM40.2178 63V49H42.4578V63H40.2178ZM46.9978 63V57.88H49.2378V63H46.9978ZM46.9978 57.88C46.9978 57.08 46.9045 56.4667 46.7178 56.04C46.5311 55.6 46.2711 55.2933 45.9378 55.12C45.6178 54.9467 45.2445 54.86 44.8178 54.86C44.0578 54.8467 43.4711 55.0933 43.0578 55.6C42.6578 56.1067 42.4578 56.8333 42.4578 57.78H41.5978C41.5978 56.7267 41.7511 55.8267 42.0578 55.08C42.3778 54.32 42.8245 53.7467 43.3978 53.36C43.9711 52.96 44.6511 52.76 45.4378 52.76C46.2245 52.76 46.9045 52.92 47.4778 53.24C48.0511 53.56 48.4845 54.06 48.7778 54.74C49.0845 55.4067 49.2378 56.28 49.2378 57.36V57.88H46.9978ZM56.5306 63V51.94C56.5306 50.8867 56.7906 50.08 57.3106 49.52C57.844 48.9467 58.644 48.66 59.7106 48.66C60.0573 48.66 60.424 48.72 60.8106 48.84C61.2106 48.9467 61.5906 49.0933 61.9506 49.28L61.1306 50.94C60.8773 50.82 60.6506 50.7333 60.4506 50.68C60.264 50.6267 60.0973 50.6 59.9506 50.6C59.5506 50.6 59.2506 50.7333 59.0506 51C58.864 51.2533 58.7706 51.6733 58.7706 52.26V63H56.5306ZM54.8106 54.84V53H61.3906V54.84H54.8106ZM64.2864 57.68C64.2864 56.6 64.4931 55.7133 64.9064 55.02C65.3197 54.3267 65.8531 53.8133 66.5064 53.48C67.1731 53.1333 67.8664 52.96 68.5864 52.96V55.1C67.9731 55.1 67.3931 55.1867 66.8464 55.36C66.3131 55.52 65.8797 55.7867 65.5464 56.16C65.2131 56.5333 65.0464 57.0267 65.0464 57.64L64.2864 57.68ZM62.8064 63V53H65.0464V63H62.8064ZM69.812 63V53H72.032V63H69.812ZM70.932 51.1C70.572 51.1 70.2587 50.9733 69.992 50.72C69.7387 50.4533 69.612 50.14 69.612 49.78C69.612 49.42 69.7387 49.1133 69.992 48.86C70.2587 48.6067 70.572 48.48 70.932 48.48C71.292 48.48 71.5987 48.6067 71.852 48.86C72.1187 49.1133 72.252 49.42 72.252 49.78C72.252 50.14 72.1187 50.4533 71.852 50.72C71.5987 50.9733 71.292 51.1 70.932 51.1ZM78.732 63.24C77.7587 63.24 76.892 63.02 76.132 62.58C75.3854 62.1267 74.792 61.5067 74.352 60.72C73.9254 59.9333 73.712 59.0267 73.712 58C73.712 56.9733 73.932 56.0667 74.372 55.28C74.812 54.4933 75.412 53.88 76.172 53.44C76.9454 52.9867 77.8254 52.76 78.812 52.76C79.7054 52.76 80.512 52.9933 81.232 53.46C81.952 53.9133 82.5187 54.5733 82.932 55.44C83.3587 56.3067 83.572 57.34 83.572 58.54H75.712L76.012 58.26C76.012 58.8733 76.1454 59.4067 76.412 59.86C76.6787 60.3 77.032 60.64 77.472 60.88C77.912 61.12 78.3987 61.24 78.932 61.24C79.5454 61.24 80.052 61.1067 80.452 60.84C80.852 60.56 81.1654 60.2 81.392 59.76L83.372 60.6C83.092 61.1333 82.732 61.6 82.292 62C81.8654 62.4 81.352 62.7067 80.752 62.92C80.1654 63.1333 79.492 63.24 78.732 63.24ZM76.152 57.1L75.832 56.82H81.472L81.172 57.1C81.172 56.5533 81.052 56.1067 80.812 55.76C80.572 55.4 80.2654 55.1333 79.892 54.96C79.532 54.7733 79.152 54.68 78.752 54.68C78.352 54.68 77.952 54.7733 77.552 54.96C77.152 55.1333 76.8187 55.4 76.552 55.76C76.2854 56.1067 76.152 56.5533 76.152 57.1ZM84.8877 63V53H86.9877L87.1277 54.84V63H84.8877ZM91.6677 63V57.88H93.9077V63H91.6677ZM91.6677 57.88C91.6677 57.08 91.5743 56.4667 91.3877 56.04C91.2143 55.6 90.961 55.2933 90.6277 55.12C90.3077 54.9467 89.9277 54.86 89.4877 54.86C88.741 54.8467 88.161 55.0933 87.7477 55.6C87.3343 56.1067 87.1277 56.8333 87.1277 57.78H86.2877C86.2877 56.7267 86.441 55.8267 86.7477 55.08C87.0543 54.32 87.4943 53.7467 88.0677 53.36C88.641 52.96 89.321 52.76 90.1077 52.76C90.9077 52.76 91.5877 52.92 92.1477 53.24C92.721 53.56 93.1543 54.06 93.4477 54.74C93.7543 55.4067 93.9077 56.28 93.9077 57.36V57.88H91.6677ZM102.997 63L102.897 61.14V49H105.117V63H102.997ZM99.7367 63.24C98.8301 63.24 98.0367 63.0267 97.3567 62.6C96.6901 62.16 96.1634 61.5467 95.7767 60.76C95.4034 59.9733 95.2167 59.0533 95.2167 58C95.2167 56.9333 95.4034 56.0133 95.7767 55.24C96.1634 54.4533 96.6901 53.8467 97.3567 53.42C98.0367 52.98 98.8301 52.76 99.7367 52.76C100.577 52.76 101.297 52.98 101.897 53.42C102.51 53.8467 102.977 54.4533 103.297 55.24C103.617 56.0133 103.777 56.9333 103.777 58C103.777 59.0533 103.617 59.9733 103.297 60.76C102.977 61.5467 102.51 62.16 101.897 62.6C101.297 63.0267 100.577 63.24 99.7367 63.24ZM100.297 61.2C100.803 61.2 101.25 61.0667 101.637 60.8C102.037 60.52 102.343 60.14 102.557 59.66C102.783 59.18 102.897 58.6267 102.897 58C102.897 57.3733 102.783 56.82 102.557 56.34C102.343 55.86 102.037 55.4867 101.637 55.22C101.25 54.9533 100.797 54.82 100.277 54.82C99.7434 54.82 99.2701 54.9533 98.8567 55.22C98.4434 55.4867 98.1167 55.86 97.8767 56.34C97.6501 56.82 97.5301 57.3733 97.5167 58C97.5301 58.6267 97.6501 59.18 97.8767 59.66C98.1167 60.14 98.4434 60.52 98.8567 60.8C99.2834 61.0667 99.7634 61.2 100.297 61.2ZM110.833 63.24C110.166 63.24 109.553 63.14 108.993 62.94C108.433 62.74 107.953 62.46 107.553 62.1C107.153 61.7267 106.846 61.2933 106.633 60.8L108.573 59.94C108.773 60.3133 109.066 60.6267 109.453 60.88C109.853 61.1333 110.293 61.26 110.773 61.26C111.293 61.26 111.706 61.1733 112.013 61C112.333 60.8133 112.493 60.56 112.493 60.24C112.493 59.9333 112.373 59.7 112.133 59.54C111.893 59.3667 111.553 59.2267 111.113 59.12L110.173 58.86C109.226 58.62 108.486 58.24 107.953 57.72C107.42 57.1867 107.153 56.58 107.153 55.9C107.153 54.9 107.473 54.1267 108.113 53.58C108.766 53.0333 109.7 52.76 110.913 52.76C111.526 52.76 112.086 52.8533 112.593 53.04C113.113 53.2133 113.56 53.4667 113.933 53.8C114.306 54.12 114.566 54.5 114.713 54.94L112.853 55.78C112.72 55.4467 112.466 55.1933 112.093 55.02C111.72 54.8333 111.306 54.74 110.853 54.74C110.4 54.74 110.046 54.84 109.793 55.04C109.54 55.2267 109.413 55.4933 109.413 55.84C109.413 56.04 109.526 56.2267 109.753 56.4C109.98 56.56 110.306 56.6933 110.733 56.8L111.913 57.08C112.566 57.24 113.1 57.4933 113.513 57.84C113.926 58.1733 114.233 58.5533 114.433 58.98C114.633 59.3933 114.733 59.8133 114.733 60.24C114.733 60.84 114.56 61.3667 114.213 61.82C113.88 62.2733 113.42 62.6267 112.833 62.88C112.246 63.12 111.58 63.24 110.833 63.24ZM116.85 58.64L116.71 49H119.17L119.03 58.64H116.85ZM117.93 63.3C117.543 63.3 117.21 63.16 116.93 62.88C116.663 62.6 116.53 62.2667 116.53 61.88C116.53 61.4933 116.663 61.1667 116.93 60.9C117.21 60.62 117.543 60.48 117.93 60.48C118.316 60.48 118.65 60.62 118.93 60.9C119.21 61.1667 119.35 61.4933 119.35 61.88C119.35 62.2667 119.21 62.6 118.93 62.88C118.65 63.16 118.316 63.3 117.93 63.3Z" fill="#181818"/>
</svg>
