<svg width="182" height="121" viewBox="0 0 182 121" fill="none" xmlns="http://www.w3.org/2000/svg">
<path d="M91.0049 1C115.98 1 138.541 7.24955 154.825 17.3027C171.125 27.3656 181 41.1372 181 56.1787C181 71.2202 171.125 84.9919 154.825 95.0547C138.541 105.108 115.98 111.357 91.0049 111.357C77.9045 111.357 65.4823 109.64 54.2686 106.559L53.874 106.45L53.5176 106.648C49.6036 108.823 43.3485 111.761 35.8945 114.329L34.3887 114.838C25.9131 117.629 15.7526 120 5.69727 120C3.77634 120 2.19228 119.177 1.45117 118.07L1.31348 117.846C0.703944 116.734 0.973902 115.42 2.25098 114.423L2.35742 114.342C2.47205 114.255 2.63722 114.129 2.87793 113.916L2.87695 113.915C3.2794 113.581 3.89167 113.062 4.6416 112.356L4.64062 112.355C5.94257 111.149 7.62736 109.443 9.38281 107.344L10.1396 106.419L10.1426 106.415C13.7568 101.856 17.2574 95.7901 17.96 88.9072L18.0137 88.3877L17.6182 88.0479C7.10789 78.9967 1.01079 67.99 1.01074 56.1787C1.01074 41.1372 10.8857 27.3656 27.1855 17.3027C43.4697 7.24961 66.03 1.00006 91.0049 1Z" fill="white" stroke="#181818" stroke-width="2"/>
</svg>
