<svg width="26" height="21" viewBox="0 0 26 21" fill="none" xmlns="http://www.w3.org/2000/svg">
<path d="M24.177 10.9975C26.6077 8.59488 26.6077 4.70383 24.177 2.30116C22.0259 0.174903 18.6358 -0.10151 16.1621 1.64627L16.0932 1.69305C15.4737 2.13106 15.3318 2.98156 15.7749 3.58967C16.218 4.19778 17.0784 4.34236 17.6936 3.90436L17.7625 3.85758C19.1435 2.88375 21.0321 3.03684 22.2281 4.22329C23.5833 5.56283 23.5833 7.73162 22.2281 9.07116L17.4011 13.851C16.0459 15.1905 13.8518 15.1905 12.4966 13.851C11.2964 12.6645 11.1415 10.7977 12.1267 9.43687L12.174 9.36883C12.6171 8.75647 12.4708 7.90597 11.8556 7.47221C11.2404 7.03846 10.3757 7.17879 9.93688 7.7869L9.88955 7.85494C8.11707 10.2959 8.39671 13.6469 10.5478 15.7731C12.9785 18.1758 16.9149 18.1758 19.3457 15.7731L24.177 10.9975ZM1.82303 10.0025C-0.607678 12.4051 -0.607678 16.2962 1.82303 18.6988C3.9741 20.8251 7.36419 21.1015 9.83793 19.3537L9.90676 19.3069C10.5263 18.8689 10.6682 18.0184 10.2251 17.4103C9.782 16.8022 8.92157 16.6576 8.30636 17.0956L8.23753 17.1424C6.85654 18.1162 4.9679 17.9632 3.7719 16.7767C2.41673 15.4329 2.41673 13.2641 3.7719 11.9246L8.59891 7.14902C9.95408 5.80948 12.1482 5.80948 13.5034 7.14902C14.7036 8.33547 14.8585 10.2023 13.8733 11.5674L13.826 11.6354C13.3829 12.2478 13.5292 13.0983 14.1444 13.532C14.7596 13.9658 15.6243 13.8255 16.0631 13.2174L16.1104 13.1493C17.8829 10.7041 17.6033 7.35314 15.4522 5.22689C13.0215 2.82422 9.08505 2.82422 6.65434 5.22689L1.82303 10.0025Z" fill="#15374D"/>
</svg>
