<svg width="18" height="18" viewBox="0 0 18 18" fill="none" xmlns="http://www.w3.org/2000/svg">
<g clip-path="url(#clip0_1581_31251)">
<path d="M15.2764 0.876465C15.7842 0.368798 16.6094 0.368667 17.1172 0.876465C17.6249 1.38427 17.6248 2.20943 17.1172 2.71729L11.1934 8.646L10.8408 9.00049L11.1943 9.354L17.123 15.2769C17.6305 15.7847 17.6307 16.6099 17.123 17.1177C16.6152 17.6255 15.7891 17.6255 15.2812 17.1177L9.35254 11.1938L8.99902 10.8413L8.64551 11.1948L2.72266 17.1235C2.21487 17.6311 1.38966 17.631 0.881836 17.1235C0.373973 16.6157 0.373973 15.7896 0.881836 15.2817L6.80469 9.35303L7.1582 8.99951L6.80469 8.646L0.875977 2.72314C0.368172 2.21532 0.368237 1.39019 0.875977 0.882324C1.38383 0.374468 2.20893 0.374481 2.7168 0.882324L8.64551 6.80518L9 7.15869L9.35352 6.80518L15.2764 0.876465Z" fill="#18405A" stroke="white"/>
</g>
<defs>
<clipPath id="clip0_1581_31251">
<rect width="18" height="18" fill="white"/>
</clipPath>
</defs>
</svg>
